<svg width="166" height="32" viewBox="0 0 166 32" fill="none" xmlns="http://www.w3.org/2000/svg">
<path d="M30.3333 26.427V5.66769H39.0673C40.4906 5.66769 41.7106 5.90919 42.7273 6.39218C43.7439 6.87517 44.5203 7.57179 45.0563 8.48204C45.5924 9.37372 45.8604 10.4604 45.8604 11.7422C45.8604 12.6525 45.6109 13.5256 45.1118 14.3615C44.6127 15.1789 43.7901 15.8662 42.6441 16.4235V14.3058C43.7347 14.7331 44.5757 15.2439 45.1673 15.8384C45.7588 16.4328 46.1654 17.083 46.3872 17.7889C46.6091 18.4762 46.72 19.2007 46.72 19.9624C46.72 22.0058 46.0453 23.5941 44.6959 24.7273C43.3465 25.8604 41.4703 26.427 39.0673 26.427H30.3333ZM34.631 22.6653H39.5664C40.4352 22.6653 41.1283 22.4145 41.6459 21.9129C42.1635 21.4113 42.4223 20.7612 42.4223 19.9624C42.4223 19.145 42.1635 18.4855 41.6459 17.984C41.1283 17.4824 40.4352 17.2316 39.5664 17.2316H34.631V22.6653ZM34.631 13.4698H39.3723C40.0377 13.4698 40.5646 13.2841 40.9527 12.9126C41.3594 12.5224 41.5627 12.0116 41.5627 11.38C41.5627 10.7484 41.3594 10.2468 40.9527 9.87528C40.5646 9.48518 40.0377 9.29012 39.3723 9.29012H34.631V13.4698Z" fill="white"/>
<path d="M53.8577 26.7614C52.7671 26.7614 51.8244 26.5849 51.0296 26.232C50.2347 25.879 49.6247 25.3774 49.1996 24.7273C48.7744 24.0585 48.5619 23.269 48.5619 22.3587C48.5619 21.5042 48.756 20.7519 49.1441 20.1017C49.5323 19.4329 50.1238 18.8756 50.9187 18.4298C51.732 17.984 52.7394 17.6682 53.9409 17.4824L58.5714 16.73V19.7952L54.6896 20.4918C54.098 20.6033 53.6452 20.7983 53.3309 21.077C53.0167 21.337 52.8596 21.7178 52.8596 22.2194C52.8596 22.6838 53.0352 23.0461 53.3864 23.3061C53.7376 23.5662 54.172 23.6963 54.6896 23.6963C55.3735 23.6963 55.9742 23.5476 56.4918 23.2504C57.0094 22.9532 57.4068 22.5538 57.6841 22.0522C57.9798 21.5321 58.1277 20.9655 58.1277 20.3525V16.3957C58.1277 15.8198 57.8967 15.3368 57.4345 14.9467C56.9909 14.5566 56.3809 14.3615 55.6046 14.3615C54.8652 14.3615 54.209 14.5659 53.6359 14.9746C53.0814 15.3832 52.6747 15.922 52.4159 16.5907L49.0887 15.0024C49.3844 14.1479 49.8558 13.4141 50.5028 12.8011C51.1497 12.1881 51.9261 11.7144 52.8318 11.38C53.7376 11.0456 54.7265 10.8784 55.7986 10.8784C57.0741 10.8784 58.2017 11.1106 59.1813 11.575C60.161 12.0395 60.9189 12.6896 61.455 13.5256C62.0095 14.3429 62.2868 15.2996 62.2868 16.3957V26.427H58.405V23.9749L59.3477 23.8077C58.9041 24.4765 58.4142 25.0338 57.8782 25.4796C57.3421 25.9069 56.7414 26.2227 56.0759 26.427C55.4105 26.6499 54.6711 26.7614 53.8577 26.7614Z" fill="white"/>
<path d="M72.7678 26.7614C71.2521 26.7614 69.8842 26.4177 68.6642 25.7304C67.4627 25.0245 66.5015 24.0678 65.7806 22.8603C65.0782 21.6528 64.727 20.2967 64.727 18.792C64.727 17.2873 65.0782 15.9405 65.7806 14.7516C66.483 13.5442 67.4442 12.5968 68.6642 11.9094C69.8842 11.2221 71.2521 10.8784 72.7678 10.8784C73.8954 10.8784 74.9398 11.0735 75.901 11.4636C76.8622 11.8537 77.6848 12.4017 78.3687 13.1076C79.0527 13.7949 79.5425 14.6123 79.8383 15.5597L76.2337 17.1201C75.9749 16.3585 75.5313 15.7548 74.9028 15.3089C74.2928 14.8631 73.5812 14.6402 72.7678 14.6402C72.0469 14.6402 71.4 14.8167 70.827 15.1696C70.2724 15.5226 69.8288 16.0148 69.496 16.6464C69.1818 17.278 69.0247 18.0025 69.0247 18.8199C69.0247 19.6373 69.1818 20.3618 69.496 20.9934C69.8288 21.625 70.2724 22.1172 70.827 22.4702C71.4 22.8232 72.0469 22.9996 72.7678 22.9996C73.5997 22.9996 74.3206 22.7767 74.9306 22.3309C75.5406 21.885 75.9749 21.2813 76.2337 20.5197L79.8383 22.108C79.561 22.9996 79.0804 23.7984 78.3964 24.5043C77.7125 25.2102 76.8899 25.7675 75.9287 26.1762C74.9675 26.5663 73.9139 26.7614 72.7678 26.7614Z" fill="white"/>
<path d="M82.2873 26.427V5.33331H86.4464V18.8478L84.8937 18.3462L91.5759 11.2128H96.7054L91.2155 17.3431L96.6777 26.427H91.9641L87.3891 18.7084L89.8014 18.0954L85.171 23.1668L86.4464 20.7426V26.427H82.2873Z" fill="white"/>
<path d="M98.5337 32V11.2128H102.415V14.1107L102.055 13.2748C102.554 12.5132 103.229 11.928 104.079 11.5193C104.948 11.092 105.937 10.8784 107.046 10.8784C108.488 10.8784 109.791 11.2314 110.955 11.9373C112.12 12.6432 113.044 13.5999 113.728 14.8074C114.412 15.9963 114.754 17.3338 114.754 18.8199C114.754 20.2875 114.412 21.625 113.728 22.8324C113.063 24.0399 112.148 24.9966 110.983 25.7025C109.819 26.4084 108.497 26.7614 107.018 26.7614C105.983 26.7614 105.022 26.5756 104.135 26.2041C103.266 25.814 102.563 25.2474 102.027 24.5043L102.693 23.6405V32H98.5337ZM106.519 22.9996C107.295 22.9996 107.979 22.8232 108.571 22.4702C109.162 22.1172 109.625 21.625 109.957 20.9934C110.29 20.3618 110.456 19.6373 110.456 18.8199C110.456 18.0025 110.29 17.2873 109.957 16.6743C109.625 16.0427 109.162 15.5504 108.571 15.1975C107.979 14.8259 107.295 14.6402 106.519 14.6402C105.78 14.6402 105.114 14.8167 104.523 15.1696C103.95 15.5226 103.497 16.0148 103.164 16.6464C102.85 17.278 102.693 18.0025 102.693 18.8199C102.693 19.6373 102.85 20.3618 103.164 20.9934C103.497 21.625 103.95 22.1172 104.523 22.4702C105.114 22.8232 105.78 22.9996 106.519 22.9996Z" fill="white"/>
<path d="M121.876 26.7614C120.785 26.7614 119.842 26.5849 119.048 26.232C118.253 25.879 117.643 25.3774 117.218 24.7273C116.792 24.0585 116.58 23.269 116.58 22.3587C116.58 21.5042 116.774 20.7519 117.162 20.1017C117.55 19.4329 118.142 18.8756 118.937 18.4298C119.75 17.984 120.757 17.6682 121.959 17.4824L126.589 16.73V19.7952L122.708 20.4918C122.116 20.6033 121.663 20.7983 121.349 21.077C121.035 21.337 120.878 21.7178 120.878 22.2194C120.878 22.6838 121.053 23.0461 121.404 23.3061C121.756 23.5662 122.19 23.6963 122.708 23.6963C123.392 23.6963 123.992 23.5476 124.51 23.2504C125.027 22.9532 125.425 22.5538 125.702 22.0522C125.998 21.5321 126.146 20.9655 126.146 20.3525V16.3957C126.146 15.8198 125.915 15.3368 125.453 14.9467C125.009 14.5566 124.399 14.3615 123.623 14.3615C122.883 14.3615 122.227 14.5659 121.654 14.9746C121.099 15.3832 120.693 15.922 120.434 16.5907L117.107 15.0024C117.402 14.1479 117.874 13.4141 118.521 12.8011C119.168 12.1881 119.944 11.7144 120.85 11.38C121.756 11.0456 122.745 10.8784 123.817 10.8784C125.092 10.8784 126.22 11.1106 127.199 11.575C128.179 12.0395 128.937 12.6896 129.473 13.5256C130.028 14.3429 130.305 15.2996 130.305 16.3957V26.427H126.423V23.9749L127.366 23.8077C126.922 24.4765 126.432 25.0338 125.896 25.4796C125.36 25.9069 124.759 26.2227 124.094 26.427C123.429 26.6499 122.689 26.7614 121.876 26.7614Z" fill="white"/>
<path d="M140.786 26.7614C139.27 26.7614 137.902 26.4177 136.682 25.7304C135.481 25.0245 134.52 24.0678 133.799 22.8603C133.096 21.6528 132.745 20.2967 132.745 18.792C132.745 17.2873 133.096 15.9405 133.799 14.7516C134.501 13.5442 135.462 12.5968 136.682 11.9094C137.902 11.2221 139.27 10.8784 140.786 10.8784C141.913 10.8784 142.958 11.0735 143.919 11.4636C144.88 11.8537 145.703 12.4017 146.387 13.1076C147.071 13.7949 147.561 14.6123 147.856 15.5597L144.252 17.1201C143.993 16.3585 143.549 15.7548 142.921 15.3089C142.311 14.8631 141.599 14.6402 140.786 14.6402C140.065 14.6402 139.418 14.8167 138.845 15.1696C138.29 15.5226 137.847 16.0148 137.514 16.6464C137.2 17.278 137.043 18.0025 137.043 18.8199C137.043 19.6373 137.2 20.3618 137.514 20.9934C137.847 21.625 138.29 22.1172 138.845 22.4702C139.418 22.8232 140.065 22.9996 140.786 22.9996C141.618 22.9996 142.339 22.7767 142.949 22.3309C143.559 21.885 143.993 21.2813 144.252 20.5197L147.856 22.108C147.579 22.9996 147.098 23.7984 146.414 24.5043C145.731 25.2102 144.908 25.7675 143.947 26.1762C142.986 26.5663 141.932 26.7614 140.786 26.7614Z" fill="white"/>
<path d="M150.305 26.427V5.33331H154.464V18.8478L152.912 18.3462L159.594 11.2128H164.723L159.234 17.3431L164.696 26.427H159.982L155.407 18.7084L157.819 18.0954L153.189 23.1668L154.464 20.7426V26.427H150.305Z" fill="white"/>
<g clip-path="url(#clip0_1_1080)">
<path fill-rule="evenodd" clip-rule="evenodd" d="M11.4485 2.20159C12.4662 2.20159 13.4208 2.33802 14.3047 2.59104C13.4394 0.574296 11.6427 0 9.64316 0C7.6397 0 5.83992 0.576553 4.97656 2.60292C5.85392 2.341 6.80442 2.20159 7.81865 2.20159H11.4485ZM7.58586 4.22632C2.75337 4.22632 0 8.028 0 12.7176V17.535C0 18.004 0.391751 18.375 0.875 18.375H18.375C18.8582 18.375 19.25 18.004 19.25 17.535V12.7176C19.25 8.028 16.0482 4.22632 11.2157 4.22632H7.58586ZM9.61816 12.7593C11.3095 12.7593 12.6807 11.3881 12.6807 9.69678C12.6807 8.00541 11.3095 6.63428 9.61816 6.63428C7.92679 6.63428 6.55566 8.00541 6.55566 9.69678C6.55566 11.3881 7.92679 12.7593 9.61816 12.7593ZM0 21.2066C0 20.7376 0.391751 20.3574 0.875 20.3574H18.375C18.8582 20.3574 19.25 20.7376 19.25 21.2066V26.3013C19.25 27.2392 18.4665 27.9996 17.5 27.9996H1.75C0.783501 27.9996 0 27.2392 0 26.3013V21.2066Z" fill="#E33E3F"/>
</g>
<defs>
<clipPath id="clip0_1_1080">
<rect width="19.25" height="28" fill="white"/>
</clipPath>
</defs>
</svg>
