<svg width="182" height="80" viewBox="0 0 182 80" fill="none" xmlns="http://www.w3.org/2000/svg">
<g clip-path="url(#clip0_6342_6286)">
<path d="M54.9888 48.9597C51.6797 43.5848 46.7456 40.5382 40.6524 39.27C38.4975 38.8242 36.3327 38.8291 34.2422 39.6515C32.8105 40.2162 32.5925 40.8107 33.2663 42.3117C37.8436 41.2268 42.1039 42.2374 46.0917 44.5409C50.1093 46.8643 53.1064 50.0991 54.4687 54.6963C56.3808 54.1117 56.6285 53.7897 56.1678 52.0113C55.8954 50.966 55.5536 49.8762 54.9888 48.9597Z" fill="url(#paint0_linear_6342_6286)"/>
<path d="M58.6102 44.5862C54.3598 38.3939 48.3409 34.9312 40.9845 33.772C39.0376 33.4649 37.0511 33.5491 35.2281 34.4804C34.3562 34.9263 33.5834 35.496 33.3754 36.7047C39.1119 35.1244 44.2589 36.5214 49.1038 39.3302C53.9734 42.1539 57.778 45.9436 59.2592 51.7693C60.2896 50.8578 60.4728 49.7382 60.2053 48.6979C59.8388 47.2712 59.4226 45.7702 58.6102 44.5862Z" fill="url(#paint1_linear_6342_6286)"/>
<path d="M33.6378 44.9823C33.9994 45.7848 34.2372 46.6913 34.7772 47.3403C35.0497 47.6722 35.877 47.5434 36.4516 47.6227C36.5408 47.6326 36.6299 47.6474 36.7191 47.6573C41.8166 48.4153 45.8391 50.8823 48.7123 55.1872C48.8808 55.4398 49.1532 55.8163 49.3762 55.8163C50.2381 55.8114 51.105 55.6776 51.9769 55.5934C50.679 48.3955 39.9688 42.4905 33.6378 44.9823Z" fill="url(#paint2_linear_6342_6286)"/>
<path d="M60.9631 38.9432C58.1543 35.0148 54.2804 32.3992 49.8814 30.5366C46.8348 29.2436 43.6792 28.4659 40.3304 28.8671C39.1712 29.0058 38.0863 29.3378 37.1897 30.0907C48.6281 30.3781 57.2329 35.3319 63.1478 45.1157C63.1577 44.4668 63.2568 43.7435 63.019 43.159C62.4245 41.7075 61.8598 40.1966 60.9631 38.9432Z" fill="url(#paint3_linear_6342_6286)"/>
<path d="M63.5987 36.8922C61.2704 28.0298 51.8085 23.7646 44.8137 25.9244C52.3485 27.4106 58.5309 31.0021 63.5987 36.8922Z" fill="url(#paint4_linear_6342_6286)"/>
<path d="M36.1345 49.703C38.8393 53.1361 42.2773 55.1374 46.6862 55.7864C45.0019 52.6407 39.0672 49.2374 36.1345 49.703Z" fill="url(#paint5_linear_6342_6286)"/>
<path d="M85.212 31.9855H87.943V42.6719C87.9381 43.6515 87.7303 44.4951 87.3196 45.2025C86.909 45.9051 86.3351 46.4468 85.5979 46.8278C84.8657 47.2038 84.0123 47.3918 83.0376 47.3918C82.1471 47.3918 81.3456 47.2335 80.6332 46.9168C79.9257 46.5952 79.3642 46.1203 78.9486 45.492C78.533 44.8636 78.3252 44.082 78.3252 43.1469H81.0636C81.0686 43.5575 81.1576 43.9113 81.3308 44.2081C81.5089 44.505 81.7538 44.7325 82.0655 44.8909C82.3772 45.0492 82.7358 45.1283 83.1415 45.1283C83.5819 45.1283 83.9554 45.0368 84.2621 44.8538C84.5689 44.6657 84.8014 44.3887 84.9597 44.0226C85.123 43.6565 85.2071 43.2063 85.212 42.6719V31.9855ZM98.0766 42.3899V35.7851H100.763V47.184H98.1582V45.158H98.0395C97.7822 45.7962 97.3592 46.3182 96.7705 46.7239C96.1867 47.1296 95.4668 47.3324 94.6109 47.3324C93.8638 47.3324 93.2034 47.1667 92.6295 46.8352C92.0605 46.4988 91.6152 46.0115 91.2937 45.3732C90.9721 44.7301 90.8113 43.9533 90.8113 43.043V35.7851H93.4977V42.6274C93.4977 43.3497 93.6956 43.9236 94.0914 44.3491C94.4872 44.7746 95.0067 44.9873 95.6499 44.9873C96.0457 44.9873 96.4291 44.8909 96.8001 44.6979C97.1712 44.505 97.4755 44.218 97.7129 43.8371C97.9554 43.4512 98.0766 42.9688 98.0766 42.3899ZM103.526 51.4586V35.7851H106.167V37.6701H106.323C106.462 37.393 106.657 37.0987 106.91 36.787C107.162 36.4703 107.503 36.2007 107.934 35.9781C108.364 35.7505 108.913 35.6367 109.581 35.6367C110.462 35.6367 111.256 35.8618 111.963 36.312C112.676 36.7573 113.24 37.4178 113.655 38.2935C114.076 39.1642 114.286 40.2329 114.286 41.4994C114.286 42.7511 114.081 43.8148 113.67 44.6905C113.26 45.5662 112.701 46.2341 111.993 46.6942C111.286 47.1543 110.484 47.3844 109.589 47.3844C108.936 47.3844 108.394 47.2755 107.963 47.0578C107.533 46.8401 107.187 46.5779 106.924 46.2712C106.667 45.9595 106.467 45.6651 106.323 45.3881H106.212V51.4586H103.526ZM106.16 41.4846C106.16 42.2217 106.264 42.8674 106.472 43.4215C106.684 43.9756 106.989 44.4085 107.385 44.7202C107.785 45.0269 108.27 45.1803 108.839 45.1803C109.433 45.1803 109.93 45.022 110.331 44.7053C110.731 44.3837 111.033 43.9459 111.236 43.3918C111.444 42.8327 111.548 42.197 111.548 41.4846C111.548 40.7771 111.446 40.1487 111.244 39.5996C111.041 39.0504 110.739 38.62 110.338 38.3083C109.937 37.9966 109.438 37.8408 108.839 37.8408C108.265 37.8408 107.778 37.9917 107.377 38.2935C106.976 38.5953 106.672 39.0183 106.464 39.5625C106.261 40.1067 106.16 40.7474 106.16 41.4846ZM116.587 47.184V35.7851H119.273V47.184H116.587ZM117.937 34.1673C117.512 34.1673 117.146 34.0263 116.839 33.7443C116.532 33.4574 116.379 33.1135 116.379 32.7128C116.379 32.3071 116.532 31.9632 116.839 31.6812C117.146 31.3943 117.512 31.2508 117.937 31.2508C118.368 31.2508 118.734 31.3943 119.036 31.6812C119.342 31.9632 119.496 32.3071 119.496 32.7128C119.496 33.1135 119.342 33.4574 119.036 33.7443C118.734 34.0263 118.368 34.1673 117.937 34.1673ZM127.728 35.7851V37.863H121.175V35.7851H127.728ZM122.793 33.0541H125.479V43.7554C125.479 44.1166 125.534 44.3936 125.642 44.5866C125.756 44.7746 125.905 44.9032 126.088 44.9725C126.271 45.0418 126.474 45.0764 126.696 45.0764C126.864 45.0764 127.018 45.064 127.156 45.0393C127.3 45.0145 127.409 44.9923 127.483 44.9725L127.936 47.0727C127.792 47.1221 127.587 47.1766 127.32 47.2359C127.057 47.2953 126.736 47.3299 126.355 47.3398C125.682 47.3596 125.076 47.2582 124.537 47.0356C123.997 46.808 123.569 46.4567 123.253 45.9818C122.941 45.5068 122.788 44.9131 122.793 44.2007V33.0541ZM134.898 47.4066C133.756 47.4066 132.769 47.1691 131.937 46.6942C131.111 46.2143 130.475 45.5365 130.03 44.6608C129.585 43.7802 129.362 42.7437 129.362 41.5513C129.362 40.3788 129.585 39.3497 130.03 38.4641C130.48 37.5736 131.109 36.881 131.915 36.3862C132.722 35.8865 133.669 35.6367 134.757 35.6367C135.46 35.6367 136.123 35.7505 136.746 35.9781C137.375 36.2007 137.929 36.547 138.409 37.017C138.893 37.487 139.274 38.0857 139.551 38.8129C139.829 39.5353 139.967 40.3961 139.967 41.3955V42.2192H130.624V40.4085H137.392C137.387 39.894 137.276 39.4363 137.058 39.0356C136.84 38.6299 136.536 38.3108 136.145 38.0782C135.759 37.8457 135.309 37.7295 134.795 37.7295C134.245 37.7295 133.763 37.863 133.347 38.1302C132.932 38.3924 132.608 38.7387 132.375 39.1692C132.148 39.5946 132.031 40.0622 132.026 40.5718V42.1525C132.026 42.8154 132.148 43.3844 132.39 43.8593C132.633 44.3293 132.971 44.6905 133.407 44.9428C133.842 45.1902 134.352 45.3139 134.936 45.3139C135.326 45.3139 135.68 45.2594 135.997 45.1506C136.313 45.0368 136.588 44.8711 136.821 44.6534C137.053 44.4357 137.229 44.1661 137.347 43.8445L139.856 44.1265C139.697 44.7894 139.396 45.3683 138.95 45.863C138.51 46.3528 137.946 46.7338 137.258 47.0059C136.571 47.273 135.784 47.4066 134.898 47.4066ZM142.24 47.184V35.7851H144.845V37.6849H144.963C145.171 37.0269 145.527 36.5198 146.032 36.1636C146.542 35.8024 147.123 35.6219 147.776 35.6219C147.924 35.6219 148.09 35.6293 148.273 35.6441C148.461 35.654 148.617 35.6713 148.741 35.6961V38.1673C148.627 38.1277 148.446 38.0931 148.199 38.0634C147.957 38.0288 147.722 38.0115 147.494 38.0115C147.004 38.0115 146.564 38.1178 146.173 38.3306C145.787 38.5384 145.483 38.8278 145.26 39.1988C145.038 39.5699 144.926 39.9979 144.926 40.4827V47.184H142.24Z" fill="white"/>
</g>
<defs>
<linearGradient id="paint0_linear_6342_6286" x1="56.9171" y1="27.4218" x2="40.7478" y2="53.3581" gradientUnits="userSpaceOnUse">
<stop offset="0.16" stop-color="#C6F462"/>
<stop offset="0.89" stop-color="#33D9FF"/>
</linearGradient>
<linearGradient id="paint1_linear_6342_6286" x1="56.8015" y1="27.3503" x2="40.6327" y2="53.2866" gradientUnits="userSpaceOnUse">
<stop offset="0.16" stop-color="#C6F462"/>
<stop offset="0.89" stop-color="#33D9FF"/>
</linearGradient>
<linearGradient id="paint2_linear_6342_6286" x1="57.0207" y1="27.487" x2="40.8518" y2="53.4233" gradientUnits="userSpaceOnUse">
<stop offset="0.16" stop-color="#C6F462"/>
<stop offset="0.89" stop-color="#33D9FF"/>
</linearGradient>
<linearGradient id="paint3_linear_6342_6286" x1="56.6249" y1="27.2397" x2="40.4556" y2="53.176" gradientUnits="userSpaceOnUse">
<stop offset="0.16" stop-color="#C6F462"/>
<stop offset="0.89" stop-color="#33D9FF"/>
</linearGradient>
<linearGradient id="paint4_linear_6342_6286" x1="56.7573" y1="27.3218" x2="40.588" y2="53.2581" gradientUnits="userSpaceOnUse">
<stop offset="0.16" stop-color="#C6F462"/>
<stop offset="0.89" stop-color="#33D9FF"/>
</linearGradient>
<linearGradient id="paint5_linear_6342_6286" x1="57.1209" y1="27.5489" x2="40.952" y2="53.4852" gradientUnits="userSpaceOnUse">
<stop offset="0.16" stop-color="#C6F462"/>
<stop offset="0.89" stop-color="#33D9FF"/>
</linearGradient>
<clipPath id="clip0_6342_6286">
<rect width="116.296" height="31.6324" fill="white" transform="translate(32.9004 24.1838)"/>
</clipPath>
</defs>
</svg>
