<svg xmlns="http://www.w3.org/2000/svg" viewBox="0 0 800 400" fill="none">
  <defs>
    <linearGradient id="bg" x1="0" y1="0" x2="800" y2="400" gradientUnits="userSpaceOnUse">
      <stop offset="0%" stop-color="#021a12"/>
      <stop offset="100%" stop-color="#010d09"/>
    </linearGradient>
    <linearGradient id="glow" x1="100" y1="350" x2="700" y2="50" gradientUnits="userSpaceOnUse">
      <stop offset="0%" stop-color="#14b8a6" stop-opacity="0.2"/>
      <stop offset="100%" stop-color="#10b981" stop-opacity="0.05"/>
    </linearGradient>
    <linearGradient id="line-grad" x1="120" y1="300" x2="680" y2="100" gradientUnits="userSpaceOnUse">
      <stop offset="0%" stop-color="#14b8a6" stop-opacity="0.3"/>
      <stop offset="50%" stop-color="#10b981" stop-opacity="0.6"/>
      <stop offset="100%" stop-color="#34d399" stop-opacity="0.4"/>
    </linearGradient>
  </defs>
  <rect width="800" height="400" fill="url(#bg)"/>
  <ellipse cx="400" cy="250" rx="320" ry="150" fill="url(#glow)"/>
  <!-- Grid lines -->
  <g stroke="#14b8a6" stroke-opacity="0.06" stroke-width="0.5">
    <line x1="120" y1="100" x2="120" y2="340"/>
    <line x1="200" y1="100" x2="200" y2="340"/>
    <line x1="280" y1="100" x2="280" y2="340"/>
    <line x1="360" y1="100" x2="360" y2="340"/>
    <line x1="440" y1="100" x2="440" y2="340"/>
    <line x1="520" y1="100" x2="520" y2="340"/>
    <line x1="600" y1="100" x2="600" y2="340"/>
    <line x1="680" y1="100" x2="680" y2="340"/>
    <line x1="120" y1="340" x2="680" y2="340"/>
    <line x1="120" y1="280" x2="680" y2="280"/>
    <line x1="120" y1="220" x2="680" y2="220"/>
    <line x1="120" y1="160" x2="680" y2="160"/>
    <line x1="120" y1="100" x2="680" y2="100"/>
  </g>
  <!-- Bar chart -->
  <rect x="145" y="280" width="35" height="60" rx="3" fill="#14b8a6" opacity="0.15"/>
  <rect x="225" y="240" width="35" height="100" rx="3" fill="#14b8a6" opacity="0.2"/>
  <rect x="305" y="210" width="35" height="130" rx="3" fill="#14b8a6" opacity="0.25"/>
  <rect x="385" y="260" width="35" height="80" rx="3" fill="#10b981" opacity="0.2"/>
  <rect x="465" y="180" width="35" height="160" rx="3" fill="#10b981" opacity="0.3"/>
  <rect x="545" y="150" width="35" height="190" rx="3" fill="#10b981" opacity="0.35"/>
  <rect x="625" y="130" width="35" height="210" rx="3" fill="#34d399" opacity="0.3"/>
  <!-- Trend line -->
  <polyline points="162,270 242,230 322,200 402,250 482,170 562,140 642,120"
    fill="none" stroke="url(#line-grad)" stroke-width="2.5" stroke-linecap="round" stroke-linejoin="round"/>
  <!-- Trend dots -->
  <circle cx="162" cy="270" r="4" fill="#14b8a6" opacity="0.7"/>
  <circle cx="242" cy="230" r="4" fill="#14b8a6" opacity="0.7"/>
  <circle cx="322" cy="200" r="4" fill="#10b981" opacity="0.7"/>
  <circle cx="402" cy="250" r="4" fill="#10b981" opacity="0.6"/>
  <circle cx="482" cy="170" r="4.5" fill="#10b981" opacity="0.8"/>
  <circle cx="562" cy="140" r="4.5" fill="#34d399" opacity="0.8"/>
  <circle cx="642" cy="120" r="5" fill="#34d399" opacity="0.9"/>
  <!-- Arrow up indicator -->
  <polygon points="700,90 710,110 704,110 704,130 696,130 696,110 690,110" fill="#34d399" opacity="0.3"/>
  <!-- Floating percentage -->
  <rect x="630" y="70" width="50" height="22" rx="4" fill="#10b981" opacity="0.12"/>
  <text x="655" y="85" font-family="monospace" font-size="11" fill="#34d399" opacity="0.5" text-anchor="middle">+42%</text>
  <!-- Candlestick hints -->
  <g opacity="0.1">
    <rect x="150" y="85" width="3" height="30" rx="1" fill="#14b8a6"/>
    <rect x="170" y="75" width="3" height="25" rx="1" fill="#ef4444"/>
    <rect x="190" y="80" width="3" height="35" rx="1" fill="#14b8a6"/>
    <rect x="210" y="70" width="3" height="20" rx="1" fill="#14b8a6"/>
  </g>
</svg>
