<svg width="238" height="48" viewBox="0 0 238 48" fill="none" xmlns="http://www.w3.org/2000/svg">
<path d="M47.4783 40.1494V10.9058H59.7819C61.7869 10.9058 63.5055 11.246 64.9377 11.9264C66.3698 12.6068 67.4635 13.5881 68.2186 14.8704C68.9738 16.1265 69.3513 17.6574 69.3513 19.463C69.3513 20.7453 68.9998 21.9752 68.2967 23.1528C67.5937 24.3042 66.4349 25.2725 64.8205 26.0575V23.0743C66.3568 23.6762 67.5416 24.3958 68.3749 25.2332C69.2081 26.0706 69.781 26.9865 70.0935 27.981C70.4059 28.9492 70.5622 29.9698 70.5622 31.0427C70.5622 33.9213 69.6117 36.1587 67.7109 37.755C65.81 39.3513 63.167 40.1494 59.7819 40.1494H47.4783ZM53.5324 34.8502H60.4849C61.7088 34.8502 62.6853 34.497 63.4144 33.7904C64.1435 33.0839 64.508 32.1679 64.508 31.0427C64.508 29.8913 64.1435 28.9623 63.4144 28.2557C62.6853 27.5492 61.7088 27.1959 60.4849 27.1959H53.5324V34.8502ZM53.5324 21.8967H60.2115C61.1489 21.8967 61.8911 21.635 62.4379 21.1117C63.0108 20.5621 63.2972 19.8425 63.2972 18.9527C63.2972 18.063 63.0108 17.3564 62.4379 16.8331C61.8911 16.2835 61.1489 16.0088 60.2115 16.0088H53.5324V21.8967Z" fill="currentColor"/>
<path d="M80.6171 40.6204C79.0808 40.6204 77.7528 40.3718 76.6331 39.8746C75.5134 39.3774 74.6541 38.6709 74.0552 37.755C73.4563 36.8129 73.1568 35.7007 73.1568 34.4185C73.1568 33.2147 73.4303 32.1549 73.9771 31.239C74.5239 30.2969 75.3572 29.5118 76.4769 28.8838C77.6226 28.2557 79.0417 27.8109 80.7343 27.5492L87.2572 26.4893V30.8072L81.7889 31.7885C80.9556 31.9455 80.3177 32.2203 79.875 32.6128C79.4323 32.9792 79.211 33.5156 79.211 34.2222C79.211 34.8764 79.4584 35.3867 79.9531 35.7531C80.4479 36.1194 81.0598 36.3026 81.7889 36.3026C82.7523 36.3026 83.5986 36.0933 84.3277 35.6746C85.0568 35.2559 85.6167 34.6932 86.0073 33.9867C86.4239 33.254 86.6322 32.4558 86.6322 31.5922V26.0183C86.6322 25.2071 86.3067 24.5267 85.6557 23.9771C85.0308 23.4276 84.1715 23.1528 83.0778 23.1528C82.0363 23.1528 81.1119 23.4407 80.3046 24.0164C79.5235 24.5921 78.9506 25.351 78.5861 26.2931L73.899 24.0556C74.3156 22.8519 74.9796 21.8182 75.891 20.9546C76.8024 20.0911 77.896 19.4238 79.1719 18.9527C80.4479 18.4817 81.841 18.2462 83.3513 18.2462C85.148 18.2462 86.7364 18.5733 88.1165 19.2275C89.4965 19.8817 90.5642 20.7976 91.3193 21.9752C92.1005 23.1267 92.4911 24.4743 92.4911 26.0183V40.1494H87.0228V36.6951L88.3508 36.4596C87.7259 37.4017 87.0358 38.1868 86.2807 38.8148C85.5255 39.4167 84.6793 39.8616 83.7418 40.1494C82.8044 40.4634 81.7629 40.6204 80.6171 40.6204Z" fill="currentColor"/>
<path d="M107.256 40.6204C105.12 40.6204 103.194 40.1363 101.475 39.1681C99.7824 38.1737 98.4283 36.826 97.4128 35.125C96.4233 33.424 95.9286 31.5137 95.9286 29.3941C95.9286 27.2744 96.4233 25.3772 97.4128 23.7024C98.4023 22.0014 99.7564 20.6668 101.475 19.6985C103.194 18.7303 105.12 18.2462 107.256 18.2462C108.844 18.2462 110.315 18.521 111.669 19.0705C113.023 19.62 114.182 20.392 115.146 21.3864C116.109 22.3547 116.799 23.5061 117.216 24.8407L112.138 27.0389C111.774 25.966 111.149 25.1155 110.263 24.4874C109.404 23.8594 108.401 23.5454 107.256 23.5454C106.24 23.5454 105.329 23.794 104.522 24.2912C103.74 24.7884 103.115 25.4818 102.647 26.3716C102.204 27.2613 101.983 28.2819 101.983 29.4333C101.983 30.5847 102.204 31.6053 102.647 32.4951C103.115 33.3848 103.74 34.0783 104.522 34.5755C105.329 35.0727 106.24 35.3213 107.256 35.3213C108.427 35.3213 109.443 35.0073 110.302 34.3792C111.162 33.7512 111.774 32.9007 112.138 31.8278L117.216 34.0652C116.825 35.3213 116.148 36.4465 115.185 37.4409C114.221 38.4354 113.062 39.2204 111.708 39.7961C110.354 40.3457 108.87 40.6204 107.256 40.6204Z" fill="currentColor"/>
<path d="M120.666 40.1494V10.4348H126.525V29.4726L124.337 28.766L133.751 18.7172H140.976L133.243 27.3529L140.937 40.1494H134.297L127.853 29.2763L131.251 28.4127L124.728 35.5568L126.525 32.1418V40.1494H120.666Z" fill="currentColor"/>
<path d="M143.552 48V18.7172H149.02V22.7995L148.512 21.6219C149.215 20.549 150.166 19.7247 151.364 19.149C152.588 18.5471 153.981 18.2462 155.543 18.2462C157.574 18.2462 159.41 18.7434 161.05 19.7378C162.691 20.7322 163.993 22.0799 164.956 23.7809C165.92 25.4557 166.401 27.3398 166.401 29.4333C166.401 31.5006 165.92 33.3848 164.956 35.0858C164.019 36.7867 162.73 38.1344 161.089 39.1288C159.449 40.1232 157.587 40.6204 155.504 40.6204C154.046 40.6204 152.692 40.3588 151.442 39.8354C150.218 39.2858 149.228 38.4877 148.473 37.4409L149.411 36.2241V48H143.552ZM154.801 35.3213C155.895 35.3213 156.858 35.0727 157.691 34.5755C158.525 34.0783 159.176 33.3848 159.644 32.4951C160.113 31.6053 160.347 30.5847 160.347 29.4333C160.347 28.2819 160.113 27.2744 159.644 26.4108C159.176 25.5211 158.525 24.8276 157.691 24.3304C156.858 23.807 155.895 23.5454 154.801 23.5454C153.759 23.5454 152.822 23.794 151.989 24.2912C151.181 24.7884 150.543 25.4818 150.075 26.3716C149.632 27.2613 149.411 28.2819 149.411 29.4333C149.411 30.5847 149.632 31.6053 150.075 32.4951C150.543 33.3848 151.181 34.0783 151.989 34.5755C152.822 35.0727 153.759 35.3213 154.801 35.3213Z" fill="currentColor"/>
<path d="M176.434 40.6204C174.898 40.6204 173.57 40.3718 172.45 39.8746C171.33 39.3774 170.471 38.6709 169.872 37.755C169.273 36.8129 168.974 35.7007 168.974 34.4185C168.974 33.2147 169.247 32.1549 169.794 31.239C170.341 30.2969 171.174 29.5118 172.294 28.8838C173.439 28.2557 174.858 27.8109 176.551 27.5492L183.074 26.4893V30.8072L177.606 31.7885C176.772 31.9455 176.134 32.2203 175.692 32.6128C175.249 32.9792 175.028 33.5156 175.028 34.2222C175.028 34.8764 175.275 35.3867 175.77 35.7531C176.265 36.1194 176.877 36.3026 177.606 36.3026C178.569 36.3026 179.415 36.0933 180.144 35.6746C180.874 35.2559 181.433 34.6932 181.824 33.9867C182.241 33.254 182.449 32.4558 182.449 31.5922V26.0183C182.449 25.2071 182.123 24.5267 181.472 23.9771C180.847 23.4276 179.988 23.1528 178.895 23.1528C177.853 23.1528 176.929 23.4407 176.121 24.0164C175.34 24.5921 174.767 25.351 174.403 26.2931L169.716 24.0556C170.132 22.8519 170.796 21.8182 171.708 20.9546C172.619 20.0911 173.713 19.4238 174.989 18.9527C176.265 18.4817 177.658 18.2462 179.168 18.2462C180.965 18.2462 182.553 18.5733 183.933 19.2275C185.313 19.8817 186.381 20.7976 187.136 21.9752C187.917 23.1267 188.308 24.4743 188.308 26.0183V40.1494H182.84V36.6951L184.168 36.4596C183.543 37.4017 182.853 38.1868 182.097 38.8148C181.342 39.4167 180.496 39.8616 179.559 40.1494C178.621 40.4634 177.58 40.6204 176.434 40.6204Z" fill="currentColor"/>
<path d="M203.072 40.6204C200.937 40.6204 199.01 40.1363 197.292 39.1681C195.599 38.1737 194.245 36.826 193.23 35.125C192.24 33.424 191.745 31.5137 191.745 29.3941C191.745 27.2744 192.24 25.3772 193.23 23.7024C194.219 22.0014 195.573 20.6668 197.292 19.6985C199.01 18.7303 200.937 18.2462 203.072 18.2462C204.661 18.2462 206.132 18.521 207.486 19.0705C208.84 19.62 209.999 20.392 210.962 21.3864C211.926 22.3547 212.616 23.5061 213.032 24.8407L207.955 27.0389C207.59 25.966 206.965 25.1155 206.08 24.4874C205.221 23.8594 204.218 23.5454 203.072 23.5454C202.057 23.5454 201.145 23.794 200.338 24.2912C199.557 24.7884 198.932 25.4818 198.463 26.3716C198.021 27.2613 197.799 28.2819 197.799 29.4333C197.799 30.5847 198.021 31.6053 198.463 32.4951C198.932 33.3848 199.557 34.0783 200.338 34.5755C201.145 35.0727 202.057 35.3213 203.072 35.3213C204.244 35.3213 205.26 35.0073 206.119 34.3792C206.978 33.7512 207.59 32.9007 207.955 31.8278L213.032 34.0652C212.642 35.3213 211.965 36.4465 211.001 37.4409C210.038 38.4354 208.879 39.2204 207.525 39.7961C206.171 40.3457 204.687 40.6204 203.072 40.6204Z" fill="currentColor"/>
<path d="M216.482 40.1494V10.4348H222.341V29.4726L220.154 28.766L229.567 18.7172H236.793L229.059 27.3529L236.754 40.1494H230.114L223.669 29.2763L227.067 28.4127L220.545 35.5568L222.341 32.1418V40.1494H216.482Z" fill="currentColor"/>
<path d="M26.8435 31.7739C28.393 31.7739 29.1678 31.7739 29.649 32.2553C30.1304 32.7366 30.1304 33.5114 30.1304 35.0609V37.2522C30.1304 40.3511 30.1304 41.9006 29.1678 42.8634C28.205 43.8261 26.6554 43.8261 23.5565 43.8261H6.57391C3.47494 43.8261 1.92543 43.8261 0.962708 42.8634C-1.9004e-05 41.9006 0 40.3511 0 37.2522V35.0609C0 33.5114-9.59998e-06 32.7366 0.481354 32.2553C0.962718 31.7739 1.73747 31.7739 3.28696 31.7739H26.8435Z" fill="currentColor"/>
<path fill-rule="evenodd" clip-rule="evenodd" d="M15.0652 6.43701C30.3497 6.43701 30.1304 16.6264 30.1304 21.5022C30.1304 26.378 30.1304 26.9805 30.1304 26.9805C30.1304 27.8881 29.3946 28.624 28.4869 28.624H1.64347C0.735797 28.624-1.25303e-05 27.8881-1.2537e-05 26.9805C-1.2537e-05 26.9805-1.25855e-05 26.378-1.2537e-05 21.5022C-1.24884e-05 16.6264-0.21928 6.43701 15.0652 6.43701ZM15.0652 10.3197C12.4935 10.3197 10.4087 12.4045 10.4087 14.9763C10.4087 17.5479 12.4935 19.6328 15.0652 19.6328C17.637 19.6328 19.7217 17.5479 19.7217 14.9763C19.7217 12.4045 17.637 10.3197 15.0652 10.3197Z" fill="currentColor"/>
<path d="M15.0608 0.120483C18.3589 0.120483 21.2459 1.27323 22.0094 3.15051C22.1245 3.47441 22.1819 3.63639 22.0797 3.75665C21.9774 3.87692 21.7796 3.84107 21.384 3.76936C20.3614 3.58403 18.9138 3.4566 17.6393 3.41895C16.8261 3.37524 15.9682 3.3526 15.0655 3.3526C14.1632 3.3526 13.3057 3.37528 12.4929 3.41895C11.2122 3.45658 9.75945 3.58399 8.73324 3.76308C8.346 3.83065 8.15232 3.86438 8.05086 3.74448C7.94941 3.62455 8.00549 3.46553 8.11774 3.14757C8.87511 1.2762 11.7638 0.120494 15.0608 0.120483Z" fill="currentColor"/>
</svg>
