<svg width="328" height="425" viewBox="0 0 328 425" fill="none" xmlns="http://www.w3.org/2000/svg">
<g clip-path="url(#clip0)">
<path d="M205.633 68.1219C192.857 62.7157 178.791 59.7378 164.045 59.7378C149.299 59.7378 135.243 62.7157 122.446 68.1219L160.666 1.94862C162.155-0.649542 165.904-0.649542 167.404 1.94862L205.633 68.1219Z" fill="currentColor"/>
<path d="M112.279 73.0684C87.1161 87.0086 68.1713 110.802 60.6534 139.242L32.2512 66.9028C31.1515 64.1247 33.4908 61.1968 36.45 61.6465L112.279 73.0684Z" fill="currentColor"/>
<path d="M79.8982 232.566L2.74936 208.783C-0.109857 207.903-0.949627 204.256 1.24977 202.217L58.554 149.075C57.6143 154.781 57.1044 160.637 57.1044 166.612C57.1144 191.495 65.6221 214.409 79.8982 232.566Z" fill="currentColor"/>
<path d="M162.446 273.477L94.8242 319.554C92.3549 321.243 88.9858 319.624 88.7559 316.636L82.7075 235.993C102.002 258.567 130.524 272.997 162.446 273.477Z" fill="currentColor"/>
<path d="M245.113 236.303L239.105 316.547C238.875 319.524 235.516 321.153 233.036 319.465L165.545 273.477C197.356 273.027 225.818 258.717 245.113 236.303Z" fill="currentColor"/>
<path d="M325.261 208.503L248.472 232.186C262.568 214.089 270.966 191.325 270.966 166.612C270.966 160.547 270.456 154.611 269.486 148.835L326.76 201.937C328.95 203.986 328.12 207.633 325.261 208.503Z" fill="currentColor"/>
<path d="M295.829 67.0426L267.447 139.342C259.969 110.932 241.084 87.1484 215.981 73.1883L291.63 61.7764C294.589 61.3267 296.919 64.2446 295.829 67.0426Z" fill="currentColor"/>
<path d="M164.045 296.541C148.26 296.541 135.473 309.332 135.473 325.1H192.617C192.617 309.332 179.821 296.541 164.045 296.541Z" fill="currentColor"/>
<path d="M268.516 249.764C258.679 262.095 260.699 280.062 273.045 289.905L308.675 245.247C296.329 235.404 278.354 237.432 268.516 249.764Z" fill="currentColor"/>
<path d="M291.92 139.332C295.429 154.711 310.755 164.334 326.131 160.816L313.414 105.126C298.038 108.643 288.411 123.962 291.92 139.332Z" fill="currentColor"/>
<path d="M221.809 51.9633C236.025 58.8085 253.101 52.8327 259.949 38.6227L208.463 13.8402C201.615 28.0502 207.593 45.1181 221.809 51.9633Z" fill="currentColor"/>
<path d="M104.981 51.9633C119.197 45.1181 125.176 28.0502 118.328 13.8402L66.8418 38.6227C73.6899 52.8327 90.7652 58.8085 104.981 51.9633Z" fill="currentColor"/>
<path d="M36.9201 139.332C40.4291 123.953 30.8018 108.643 15.416 105.136L2.70947 160.826C18.0953 164.334 33.411 154.711 36.9201 139.332Z" fill="currentColor"/>
<path d="M23.4236 245.247L59.0638 289.905C71.4004 280.072 73.4199 262.095 63.5826 249.764C53.7453 237.432 35.7602 235.414 23.4236 245.247Z" fill="currentColor"/>
<path d="M35.2505 376.254V397H59.6038V377.454H70.7008V423.981H59.6038V406.893H35.2505V423.981H24.1536V379.252L35.2505 376.254Z" fill="currentColor"/>
<path d="M90.7952 414.088H124.746L121.747 423.981H79.6982V377.454H124.746L121.747 387.347H90.7952V395.801H119.647V405.694H90.7952V414.088Z" fill="currentColor"/>
<path d="M142.561 377.454V414.088H175.312L172.313 423.981H131.464V377.454H142.561Z" fill="currentColor"/>
<path d="M191.208 377.454V423.981H180.111V377.454H191.208Z" fill="currentColor"/>
<path d="M237.755 377.454H248.852V405.514C248.852 419.064 237.755 425 223.419 425C209.083 425 198.766 418.644 198.766 405.514V379.252L209.863 376.254V405.514C209.863 412.349 214.421 414.927 223.959 414.927C233.496 414.927 237.755 412.169 237.755 405.514V377.454Z" fill="currentColor"/>
<path d="M254.49 391.604C254.49 384.469 260.129 377.454 271.166 377.454H302.837L299.838 387.347H271.286C267.867 387.347 266.187 389.505 266.187 391.604C266.187 393.702 267.927 395.801 271.286 395.801H287.361C298.218 395.801 303.857 402.816 303.857 409.951C303.857 417.086 298.518 423.981 287.361 423.981H254.49L257.489 414.088H287.241C290.6 414.088 292.34 412.109 292.34 409.951C292.34 407.792 290.66 405.634 287.241 405.634H271.166C259.949 405.634 254.49 398.619 254.49 391.604Z" fill="currentColor"/>
</g>
<defs>
<clipPath id="clip0">
<rect width="328" height="425" fill="white"/>
</clipPath>
</defs>
</svg>
