<svg xmlns="http://www.w3.org/2000/svg" viewBox="0 0 307.12 68.54">
<path d="m80.85,17.44l6.68,7.86c.77.88,1.44,1.61,1.72,2.02,2,1.99,3.12,4.67,3.12,7.47-.19,3.3-2.34,5.55-4.33,7.96l-4.68,5.49-2.44,2.85c-.09.1-.15.22-.16.35s0,.26.06.38c.05.12.15.22.26.29.12.07.25.1.38.09h24.38c3.72,0,8.41,3.13,8.14,7.88,0,2.16-.88,4.23-2.43,5.75-1.55,1.53-3.65,2.39-5.84,2.4h-38.18c-2.51,0-9.27.27-11.16-5.49-.4-1.2-.46-2.5-.16-3.73.55-1.82,1.42-3.54,2.57-5.06,1.92-2.85,4-5.69,6.05-8.45,2.64-3.61,5.36-7.11,8.03-10.79.09-.12.15-.27.15-.42s-.05-.3-.15-.42l-9.7-11.38c-.06-.09-.15-.15-.24-.19-.09-.05-.19-.07-.3-.07s-.21.02-.3.07-.18.12-.24.19c-2.6,3.46-13.97,18.77-16.4,21.87-2.43,3.1-8.4,3.27-11.71,0l-15.18-15.01c-.09-.09-.22-.16-.36-.19-.13-.02-.27-.02-.4.04-.12.05-.23.14-.31.26s-.12.25-.12.38v28.86c.04,2.05-.58,4.06-1.76,5.75-1.18,1.68-2.87,2.97-4.82,3.66-1.25.43-2.58.56-3.89.37-1.31-.19-2.56-.67-3.64-1.43-1.08-.75-1.96-1.75-2.57-2.91-.6-1.16-.93-2.44-.93-3.75V8.47c.09-1.87.77-3.67,1.95-5.13C3.13,1.87,4.75.81,6.58.31c1.57-.41,3.22-.41,4.78.02,1.57.42,2.99,1.24,4.13,2.38l23.33,23.02c.07.07.16.12.25.16s.19.05.29.04c.1,0,.19-.04.28-.09s.16-.12.22-.19L56.44,3.02c.77-.92,1.73-1.66,2.81-2.17,1.09-.51,2.27-.78,3.48-.8h43.11c1.18,0,2.34.26,3.42.74,1.07.48,2.03,1.19,2.81,2.06s1.36,1.91,1.7,3.02c.34,1.12.43,2.29.28,3.44-.3,2-1.33,3.82-2.9,5.13-1.57,1.31-3.55,2.02-5.61,1.99h-24.14c-.12,0-.24.04-.34.1-.1.06-.19.16-.24.26-.05.11-.09.22-.08.34,0,.12.05.23.12.33h0Z" fill="currentColor"/>
<path d="m157.07,21.61c.63,0,1.22,0,1.77.37.55.37.92.93,1.12,1.68l3.6,13.01c.12.43.3.65.53.65.31,0,.49-.24.53-.71l2.12-13.18c.12-.67.42-1.2.91-1.59.49-.39,1.05-.32,1.68-.32.79,0,1.44-.02,1.97.49.53.51.76,1.16.68,1.94l-3.65,19.43c-.16.87-.57,1.56-1.24,2.09-.67.53-1.41.51-2.24.51-.75,0-1.44.04-2.09-.46-.65-.49-1.13-1.15-1.44-1.97l-3.72-12.95c-.12-.43-.3-.65-.53-.65s-.41.22-.53.65l-3.72,12.95c-.31.82-.8,1.48-1.44,1.97-.65.49-1.35.46-2.09.46-.83,0-1.57.02-2.24-.51-.67-.53-1.08-1.23-1.24-2.09l-3.65-19.43c-.08-.79.15-1.43.68-1.94.53-.51,1.19-.49,1.97-.49.63,0,1.19-.08,1.68.32.49.39.8.92.91,1.59l2.12,13.18c.04.47.22.71.53.71.24,0,.41-.22.53-.65l3.6-13.01c.2-.75.57-1.31,1.12-1.68.55-.37,1.14-.37,1.77-.37Z" fill="currentColor"/>
<path d="m190.76,36.48h-.44c-.34,0-.68-.09-.98-.26-.3-.16-.56-.39-.76-.66s-.33-.59-.37-.93-.02-.67.09-.99l2.16-6.53s.02-.07.04-.1c.03-.02.06-.04.1-.04s.08.02.1.04.04.06.04.1l2.16,6.53c.08.33.08.67,0,1-.07.33-.21.65-.42.91-.2.27-.47.49-.77.65-.3.16-.64.25-.98.27m3.66-13.48c-.15-.41-.42-.77-.78-1.02-.36-.26-.79-.39-1.24-.4h-3.75c-.44,0-.87.14-1.24.4-.36.26-.63.61-.78,1.02l-7.2,20.44c-.11.32-.14.66-.09.99.05.33.18.65.37.93s.45.51.76.66c.3.16.64.25.97.26h1.15c.44,0,.87-.14,1.24-.4.36-.26.63-.61.78-1.02l.86-2.69c.15-.41.42-.77.78-1.02.36-.26.79-.39,1.24-.4h5.9c.44,0,.87.14,1.24.4.36.26.63.61.78,1.02l.86,2.69c.15.41.42.77.78,1.02.36.26.79.39,1.24.4h1.15c.34,0,.68-.09.97-.26.3-.16.56-.39.76-.66s.33-.59.37-.93.02-.67-.09-.99l-7.06-20.44h0Z" fill="currentColor"/>
<path d="m227.68,43.33c-.11-.26-.26-.5-.47-.7-.2-.19-.44-.36-.71-.46-.26-.1-.55-.16-.83-.15h-9.49v-18.3c-.04-.55-.28-1.07-.67-1.46-.4-.39-.93-.63-1.49-.66h-1.01c-.57.02-1.11.24-1.51.64-.4.4-.64.93-.65,1.49v20.44c.02.56.25,1.09.65,1.49s.94.62,1.51.64h12.67c.57-.02,1.11-.24,1.51-.64.4-.4.64-.93.65-1.49,0-.28-.05-.56-.16-.83Z" fill="currentColor"/>
<path d="m252.96,43.33c-.11-.26-.26-.5-.47-.7-.2-.19-.44-.36-.71-.46-.26-.1-.55-.16-.83-.15h-9.49v-18.3c-.04-.55-.28-1.07-.67-1.46-.4-.39-.93-.63-1.49-.66h-1.01c-.57.02-1.11.24-1.51.64-.41.4-.64.93-.65,1.49v20.44c.02.56.25,1.09.65,1.49.4.4.94.62,1.51.64h12.67c.57-.02,1.11-.24,1.51-.64.41-.4.64-.93.65-1.49,0-.28-.05-.56-.16-.83Z" fill="currentColor"/>
<path d="m275.31,41.99h-7.34c-.57-.02-1.11-.24-1.51-.64s-.64-.93-.65-1.49v-1.71c.02-.56.25-1.09.65-1.49.4-.4.94-.62,1.51-.64h6.28c.58,0,1.12-.23,1.53-.62s.63-.94.63-1.5-.23-1.11-.63-1.5c-.4-.4-.96-.62-1.53-.62h-6.34c-.57-.02-1.11-.24-1.51-.64s-.64-.93-.65-1.49v-1.71c.02-.56.25-1.09.65-1.49.4-.4.94-.62,1.51-.64h7.2c.58,0,1.12-.23,1.53-.62s.63-.94.63-1.5-.23-1.11-.63-1.5-.96-.62-1.53-.62h-8.64c-.33,0-.66.1-.93.31s-.44.5-.51.83l-4.61,21.43v.43c.08.5.35.95.75,1.26.4.32.9.48,1.41.44h12.67c.58,0,1.12-.23,1.53-.62s.63-.94.63-1.5-.23-1.11-.63-1.5c-.4-.4-.96-.62-1.53-.62h.05l.02-.03Z" fill="currentColor"/>
<path d="m306.97,22.9c-.11-.26-.26-.5-.47-.7-.2-.19-.44-.36-.71-.46s-.55-.16-.83-.15h-8.04s0,0,0,0h-1.01s0,0,0,0h-7.95c-1.15,0-2.19.86-2.25,2.02-.06,1.23.91,2.24,2.13,2.24h4.36c.86,0,1.56.7,1.56,1.56v16.74c.02.56.25,1.09.65,1.49.4.4.94.62,1.51.64h1.01c.57-.02,1.11-.24,1.51-.64.4-.4.64-.93.65-1.49v-16.74c0-.86.7-1.56,1.56-1.56h4.34c.57-.02,1.11-.24,1.51-.64.4-.4.64-.93.65-1.49,0-.28-.05-.56-.16-.83Z" fill="currentColor"/>
</svg>