<svg width="96" height="24" viewBox="0 0 96 24" fill="none" xmlns="http://www.w3.org/2000/svg">
<path d="M9.71966 21.7785C9.86239 21.8784 10.0194 21.9783 10.1764 22.0496C10.419 22.1781 10.7187 22.3208 10.9899 22.3779C11.1612 22.4207 11.5751 22.435 11.7036 22.5349C11.8463 22.6491 11.6465 22.906 11.5608 23.0202C10.9043 23.9194 9.91947 24.0906 8.84903 23.9622C8.1354 23.8765 7.62158 23.6196 7.1934 23.0345C7.13631 22.9488 6.95077 22.6919 6.99359 22.592C7.05068 22.4636 7.57877 22.4207 7.72149 22.3922C8.19249 22.2923 8.57785 22.0211 8.99175 21.807C9.00603 21.807 9.03457 21.807 9.0203 21.7785C8.76339 21.7785 8.52076 21.8926 8.26385 21.9355C7.8214 21.9926 7.23622 21.964 6.80804 21.807C5.88032 21.4645 5.4236 20.4226 4.69569 19.8231C4.35315 19.5377 3.93925 19.4806 3.52534 19.3093C2.88307 19.0238 2.21226 18.3959 1.76981 17.8678C1.18463 17.1827 0.770722 15.5271 0.627996 14.6279C0.570905 14.2711 0.556632 13.9 0.499542 13.5574C0.428179 13.1578 0.285453 12.7724 0.199817 12.3728C0.0285455 11.5593 0.0999084 10.6744 0 9.83228V8.9331C0.27118 3.32396 5.4236-0.829377 10.9899 0.141162C15.6713 0.954702 18.8827 5.06522 18.74 9.78946C18.7257 10.3889 18.6971 11.0026 18.6543 11.6164C18.6258 12.3014 18.3118 12.9723 18.2119 13.6573C18.0406 14.9561 17.8979 16.0409 17.327 17.254C17.0558 17.8249 16.3279 18.5814 15.8141 18.9525C15.3145 19.3093 14.9149 19.3521 14.4011 19.5805C13.7874 19.8517 13.2878 20.6937 12.8311 21.179C12.1746 21.8498 11.4038 22.0782 10.4761 21.9355C10.2192 21.8926 9.97657 21.7785 9.71966 21.7785ZM11.7036 16.5832C12.1745 16.4833 12.6313 16.2835 13.0737 16.0551C16.9702 14.0142 18.4688 9.10437 16.3279 5.22222C14.1156 1.22588 8.93466-0.101472 5.08106 2.39624C0.385362 5.43631 0.271181 12.2301 4.80988 15.4842C5.48069 15.9695 6.26568 16.412 7.0935 16.569V17.4967C6.67959 17.7108 6.16577 17.6394 5.76614 17.4396C5.39505 17.254 5.12387 17.04 4.70997 16.8972C4.56724 16.8544 4.25324 16.783 4.16761 16.7402C4.11052 16.7117 4.02488 16.569 3.96779 16.5119C3.61097 16.1265 3.25416 15.9838 2.8688 15.6698C2.59762 15.4414 2.32644 15.1274 2.12662 14.842C1.88399 14.5137 1.6699 14.1569 1.52717 13.7715V13.9C1.56999 14.7992 2.02671 16.098 2.7118 16.7117C3.2827 17.2255 4.03915 17.3825 4.55297 17.9819C4.6386 18.0819 4.70997 18.196 4.7956 18.2959C4.7956 18.2103 4.75279 18.1104 4.72424 18.0248C4.65288 17.8392 4.52442 17.6394 4.41024 17.4681C4.3817 17.4253 4.23897 17.2683 4.23897 17.254C4.23897 17.2398 4.25324 17.2112 4.28179 17.2112C4.41024 17.2112 4.69569 17.3397 4.80988 17.3968C5.5806 17.8107 6.1515 18.5957 6.92222 19.0238C7.69295 19.452 8.62067 19.5662 9.39139 19.9944C10.2049 19.5948 11.1326 19.452 11.9319 19.0096C12.7026 18.5814 13.2593 17.8107 14.03 17.3968C14.187 17.3111 14.3868 17.2112 14.5724 17.2398C14.3868 17.4824 14.2013 17.7393 14.0871 18.0248L14.0157 18.2817C14.187 18.0533 14.3583 17.8392 14.5866 17.6537C15.0576 17.2826 15.6571 17.097 16.1138 16.6974C16.699 16.1693 17.0986 15.1702 17.2413 14.4138C17.2842 14.1854 17.3127 13.9428 17.3127 13.7144C17.1985 13.9856 17.0986 14.2282 16.9416 14.4852C16.6847 14.8848 16.2708 15.3986 15.914 15.6983C15.5429 15.9838 15.2146 16.1122 14.8721 16.4833C14.7293 16.6403 14.7579 16.6974 14.5295 16.7688C14.4011 16.8116 14.2726 16.8259 14.1442 16.8687C13.5733 17.0542 13.1308 17.5109 12.5171 17.5966C12.2459 17.6394 11.9747 17.6109 11.7321 17.4824V16.5404L11.7036 16.5832Z" fill="currentColor"/>
<path d="M8.84898 14.8705C8.90607 14.8991 9.27716 14.7849 9.37707 14.7706C9.50552 14.7706 9.80525 14.8991 9.89089 14.8705L10.1335 14.3853C10.1621 14.371 10.4903 14.5851 10.5332 14.6279C10.9899 14.9847 11.1041 15.5271 11.0898 16.0837C10.7615 16.0266 10.4475 15.941 10.1478 15.8268L9.66252 15.6127C10.1192 15.9981 10.6759 16.2407 11.2468 16.3977V17.511C11.2468 18.1818 10.4332 18.8954 9.76243 19.2808L9.8338 17.8107C9.8338 17.8107 10.5332 17.3825 10.6616 17.354C10.733 17.3397 10.89 17.4539 10.9042 17.4396L10.8757 16.5832C10.5332 16.7688 10.1478 16.8972 9.76243 16.9829L9.6768 17.3112L9.3628 17.4967L9.02025 17.3112L8.93462 16.9829C8.54926 16.883 8.17817 16.7545 7.82135 16.5832V17.4682C7.87844 17.4396 7.93554 17.3397 8.03544 17.3682C8.14962 17.4253 8.8918 17.825 8.8918 17.825L8.99171 19.295C8.33517 18.9668 7.46454 18.1961 7.46454 17.5252V16.4548C8.02117 16.255 8.60635 16.0409 9.06307 15.6413C8.77762 15.7554 8.76335 15.7697 8.72053 15.784C8.37799 15.9267 7.99263 16.0266 7.63581 16.0837C7.66435 15.5128 7.74999 14.9704 8.22099 14.6136C8.27808 14.5708 8.56353 14.3853 8.60635 14.3853L8.84898 14.8705Z" fill="currentColor"/>
<path d="M9.84804 14.6279V13.2149C9.86231 13.2149 9.56258 14.5137 9.56258 14.5137L9.37704 12.644L9.17722 14.5137L8.89177 13.2149V14.6279C8.90604 14.6279 8.07823 12.0017 8.07823 12.0017C8.13532 11.9732 8.19241 11.9161 8.2495 11.8733C8.60632 11.6306 9.10586 11.4736 9.54831 11.5307C9.96222 11.5735 10.3619 11.7448 10.6758 12.016L9.84804 14.6422V14.6279Z" fill="currentColor"/>
<path d="M95.3411 18.8383C95.1984 18.4957 95.1413 18.0533 95.1413 17.5109V5.1651C95.1413 5.13655 95.1556 5.10801 95.1698 5.07946C95.3125 4.73692 95.4981 4.36583 95.7407 3.98047H95.1413H95.0842H92.5865H91.6302C91.8871 4.36583 92.0727 4.72265 92.2011 5.07946C92.3438 5.422 92.4009 5.86446 92.4009 6.40682L92.3724 11.8732C92.3724 11.8732 85.3503 4.19456 85.3074 3.98047H81.6822C81.9391 4.3801 82.1389 4.75119 82.2674 5.09373C82.4101 5.422 82.4672 5.86446 82.4672 6.39254V17.5109C82.4672 18.039 82.3958 18.4815 82.2674 18.8383C82.1389 19.1665 81.9534 19.5376 81.6965 19.9373H85.7927C85.5358 19.5376 85.336 19.1808 85.2075 18.8383C85.0791 18.4957 85.022 18.0533 85.022 17.5109V8.83316L92.3724 16.9686V18.8525C92.2439 19.1951 92.0441 19.5519 91.8158 19.923H92.3724H94.9557H95.0842H95.912C95.6694 19.5376 95.4838 19.1808 95.3411 18.8383Z" fill="currentColor"/>
<path d="M66.8244 17.8392C66.696 18.2531 66.696 18.6385 66.7959 18.9953C66.8958 19.3664 67.0671 19.6661 67.2954 19.923H62.5141C62.8852 19.6233 63.1706 19.3093 63.399 19.0095C63.6416 18.6955 63.8557 18.2388 64.0555 17.6679L67.9662 6.12136C68.0947 5.72173 68.1232 5.35064 68.0519 4.97955C68.009 4.59419 67.8235 4.26592 67.5095 3.98047H72.5906L77.2863 17.7393C77.4575 18.2103 77.6573 18.6099 77.8714 18.9239C78.0998 19.2379 78.4138 19.5805 78.7991 19.923H73.0615C73.3185 19.6661 73.4897 19.3664 73.5896 19.0381C73.6895 18.7098 73.661 18.2959 73.504 17.8106L72.7333 15.4128H67.5809L66.8101 17.8249L66.8244 17.8392ZM71.9911 13.1435L70.1642 7.43445L68.323 13.1435H71.9911Z" fill="currentColor"/>
<path d="M52.4804 19.923C52.7373 19.5234 52.9372 19.1523 53.0656 18.8097C53.2083 18.4386 53.2654 17.9962 53.2654 17.4681V6.56381H50.8533C50.3681 6.56381 49.9542 6.63518 49.6259 6.79218C49.3119 6.9349 48.9694 7.12045 48.5983 7.37735V3.98047H61.4579V7.37735C61.0725 7.12045 60.73 6.92063 60.416 6.79218C60.102 6.63518 59.6881 6.56381 59.2028 6.56381H56.7908V17.4681C56.7908 17.7393 56.805 17.9819 56.8336 18.196C56.8621 18.4101 56.9049 18.6099 56.9763 18.7812C57.0477 18.9667 57.1333 19.1523 57.2332 19.3235C57.3331 19.5091 57.4616 19.7089 57.6043 19.9087H52.4804V19.923Z" fill="currentColor"/>
<path d="M44.9302 17.5109C44.9302 18.039 45.0016 18.4815 45.1301 18.8383C45.2728 19.1665 45.4583 19.5376 45.7152 19.9373H40.5914C40.8483 19.5376 41.0481 19.1808 41.1765 18.8383C41.3193 18.4957 41.3764 18.0533 41.3764 17.5109V6.39254C41.3764 5.86446 41.305 5.422 41.148 5.09373C41.0053 4.75119 40.8197 4.36583 40.5628 3.98047H45.7295C45.4726 4.3801 45.2728 4.75119 45.1158 5.09373C44.9731 5.422 44.916 5.86446 44.916 6.39254V17.5109H44.9302Z" fill="currentColor"/>
<path d="M28.6879 19.923C28.9448 19.5234 29.1447 19.1523 29.2731 18.8097C29.4158 18.4386 29.4729 17.9962 29.4729 17.4681V6.56381H27.0609C26.5756 6.56381 26.1617 6.63518 25.8334 6.79218C25.5194 6.9349 25.1769 7.12045 24.8058 7.37735V3.98047H37.6654V7.37735C37.2801 7.12045 36.9375 6.92063 36.6235 6.79218C36.3095 6.63518 35.8956 6.56381 35.4103 6.56381H32.9983V17.4681C32.9983 17.7393 33.0125 17.9819 33.0411 18.196C33.0696 18.4101 33.1124 18.6099 33.1838 18.7812C33.2552 18.9667 33.3408 19.1523 33.4407 19.3235C33.5406 19.5091 33.6691 19.7089 33.8118 19.9087H28.6879V19.923Z" fill="currentColor"/>
</svg>
