<svg xmlns="http://www.w3.org/2000/svg" viewBox="0 0 128 128" width="128" height="128">
  <circle cx="64" cy="64" r="60" fill="#A16207"/>
  <circle cx="64" cy="64" r="56" fill="#854D0E"/>
  <!-- Gear -->
  <circle cx="64" cy="64" r="22" fill="none" stroke="white" stroke-width="8"/>
  <circle cx="64" cy="64" r="10" fill="white"/>
  <circle cx="64" cy="64" r="5" fill="#854D0E"/>
  <!-- Gear teeth -->
  <rect x="58" y="34" width="12" height="14" rx="2" fill="white"/>
  <rect x="58" y="80" width="12" height="14" rx="2" fill="white"/>
  <rect x="34" y="58" width="14" height="12" rx="2" fill="white"/>
  <rect x="80" y="58" width="14" height="12" rx="2" fill="white"/>
  <rect x="40" y="40" width="12" height="12" rx="2" fill="white" transform="rotate(45 46 46)"/>
  <rect x="76" y="40" width="12" height="12" rx="2" fill="white" transform="rotate(45 82 46)"/>
  <rect x="40" y="76" width="12" height="12" rx="2" fill="white" transform="rotate(45 46 82)"/>
  <rect x="76" y="76" width="12" height="12" rx="2" fill="white" transform="rotate(45 82 82)"/>
</svg>