<?xml version="1.0" encoding="UTF-8"?>
<svg version="1.1" xmlns="http://www.w3.org/2000/svg" width="400" height="400">
<path d="M0 0 C3.52216798 1.71653391 6.87560095 3.69917903 10.25 5.6875 C12.31630624 6.88133631 14.38407087 8.07265122 16.453125 9.26171875 C17.52755859 9.87966309 18.60199219 10.49760742 19.70898438 11.13427734 C25.0886971 14.18411152 30.54366841 17.09017421 36 20 C45.31147167 24.97975129 54.54636583 30.07401194 63.71630859 35.30981445 C68.25638164 37.89899444 72.80805381 40.4504525 77.421875 42.90625 C98.43371569 54.10542477 115.97919062 67.41343315 123.4375 91 C125.51526126 98.304775 126.15434275 105.13388986 126.17700195 112.6862793 C126.18357315 113.64484329 126.19014435 114.60340729 126.19691467 115.59101868 C126.21656728 118.75208628 126.22829241 121.91310655 126.23828125 125.07421875 C126.24235678 126.15824289 126.2464323 127.24226704 126.25063133 128.3591404 C126.27145791 134.09709098 126.28577433 139.83501789 126.29516602 145.57299805 C126.30622269 151.47959727 126.34062428 157.38581901 126.38033772 163.29228497 C126.40656018 167.85212372 126.41486287 172.41187326 126.41844749 176.97178078 C126.42329891 179.148136 126.43487132 181.32448763 126.45348549 183.50076866 C126.66057818 209.31764378 126.66057818 209.31764378 117.90234375 220.1484375 C110.25939632 227.58736374 101.46398634 231.35054664 90.875 231.4375 C89.85019531 231.48680664 89.85019531 231.48680664 88.8046875 231.53710938 C78.04058166 231.64593765 68.38765004 225.33392769 59.375 220.0625 C50.9866836 215.23672484 42.53710805 210.55736528 34 206 C24.69823319 201.02489304 15.47715998 195.9287687 6.31005859 190.70996094 C-1.07539399 186.50787071 -8.50795794 182.39763794 -15.97216797 178.3371582 C-16.75221191 177.91136475 -17.53225586 177.48557129 -18.3359375 177.046875 C-19.02220215 176.67401367 -19.7084668 176.30115234 -20.41552734 175.91699219 C-22 175 -22 175 -23 174 C-23.11885462 171.88777818 -23.16641594 169.77153978 -23.18754578 167.65608215 C-23.19545586 166.98567498 -23.20336594 166.31526781 -23.21151572 165.62454528 C-23.23672573 163.36145405 -23.25453966 161.09836685 -23.2722168 158.83520508 C-23.28829376 157.21919462 -23.30467348 155.60318715 -23.32133484 153.98718262 C-23.46610016 139.22151226 -23.54109282 124.45499024 -23.60025311 109.68875599 C-23.64484296 98.76890219 -23.72199774 87.8503028 -23.84183758 76.93101007 C-23.9232097 69.25879581 -23.96638527 61.58692565 -23.98155528 53.91429824 C-23.99173003 49.32922901 -24.01908677 44.74573837 -24.08786583 40.16114235 C-24.15189264 35.84563574 -24.16867225 31.53250446 -24.14937019 27.21659088 C-24.15052383 25.63385622 -24.16878237 24.05102639 -24.205513 22.46871758 C-24.30742343 17.8391119 -24.28726864 13.49121073 -23 9 C-20.01889128 5.95416374 -16.91764903 4.55047075 -13 3 C-11.73854062 2.20540797 -10.4869339 1.39475644 -9.25 0.5625 C-5.24416254 -1.36338339 -4.25461502 -1.17968871 0 0 Z M-4 20 C-4 67.52 -4 115.04 -4 164 C8.87 170.93 8.87 170.93 22 178 C33.5 184.5 33.5 184.5 39.15625 187.71875 C46.4597433 191.84681143 53.86236099 195.78772334 61.26025391 199.74316406 C69.84197369 204.34433874 78.33453613 209.09037804 86.79296875 213.9140625 C87.68371094 214.42195312 88.57445312 214.92984375 89.4921875 215.453125 C90.26933105 215.89817383 91.04647461 216.34322266 91.84716797 216.80175781 C92.91281982 217.3948877 92.91281982 217.3948877 94 218 C94.68980957 218.38639648 95.37961914 218.77279297 96.09033203 219.17089844 C98.99329609 220.43124949 101.00933681 219.82720471 104 219 C105.89958081 217.68681738 105.89958081 217.68681738 107 216 C107 215.34 107 214.68 107 214 C106.27337158 213.59910156 105.54674316 213.19820312 104.7980957 212.78515625 C74.2475586 195.9296875 74.2475586 195.9296875 72.43133545 194.92762756 C71.23541913 194.26781552 70.03949628 193.6080153 68.84356689 192.94822693 C65.86870229 191.30698979 62.89395285 189.66554459 59.91943359 188.02368164 C54.32414173 184.93549013 48.72782633 181.84920339 43.12765503 178.76986694 C40.52299438 177.33749875 37.91894714 175.90401736 35.31494141 174.47045898 C34.08982184 173.79640425 32.86441183 173.12287708 31.63867188 172.44995117 C24.46472465 168.51129384 17.36296059 164.48604173 10.34790039 160.26977539 C8.15167513 158.84143247 8.15167513 158.84143247 6 159 C6.00092179 158.32247272 6.00184359 157.64494543 6.00279331 156.94688702 C6.02486343 140.47240956 6.04141884 123.99793677 6.05181217 107.52344799 C6.05697171 99.55656084 6.06400791 91.58968355 6.07543945 83.62280273 C6.08539672 76.68007361 6.09185592 69.73735163 6.09408849 62.79461557 C6.09539382 59.11741872 6.09846849 55.4402423 6.10573006 51.76305199 C6.11376461 47.66127994 6.11399046 43.55954356 6.11352539 39.45776367 C6.11712067 38.23425201 6.12071594 37.01074036 6.12442017 35.75015259 C6.12235817 34.0779641 6.12235817 34.0779641 6.12025452 32.37199402 C6.12163721 30.916022 6.12163721 30.916022 6.12304783 29.43063641 C6.10162292 26.85843728 6.10162292 26.85843728 5 24 C2.33916031 22.00603743 -0.61242325 20 -4 20 Z M21 34 C21 72.28 21 110.56 21 150 C28.92 154.29 36.84 158.58 45 163 C50.14020191 165.84351595 55.27813006 168.68947762 60.40722656 171.55273438 C79.68224045 182.34079116 79.68224045 182.34079116 99.0625 192.9375 C100.75052734 193.84822266 100.75052734 193.84822266 102.47265625 194.77734375 C104.83213929 196.14516273 104.83213929 196.14516273 107 196 C107 193.03 107 190.06 107 187 C106.36723145 186.65855957 105.73446289 186.31711914 105.08251953 185.96533203 C92.40092554 179.11878508 79.74420437 172.23383968 67.16210938 165.20605469 C64.92758975 163.95960856 62.69073413 162.71745315 60.453125 161.4765625 C59.68661621 161.05141357 58.92010742 160.62626465 58.13037109 160.18823242 C56.71676418 159.40430644 55.30304483 158.62058311 53.88916016 157.8371582 C48.81416469 155.02023546 43.75414842 152.17698936 38.69580078 149.33032227 C37.58405235 148.70480846 37.58405235 148.70480846 36.44984436 148.06665802 C34.63318479 147.04451827 32.81658625 146.02227005 31 145 C31.00129882 144.45223782 31.00259764 143.90447563 31.00393581 143.34011459 C31.03313855 130.01123168 31.0233429 116.68286862 30.97153378 103.35404587 C30.94765969 96.90823075 30.93676603 90.46293355 30.95532227 84.01708984 C30.97274971 77.79870604 30.95636132 71.58125382 30.91632271 65.3629837 C30.90701407 62.98830015 30.90998078 60.61353632 30.92530632 58.23888397 C30.94466732 54.91699743 30.92075284 51.59807212 30.88647461 48.27636719 C30.9022908 47.29021927 30.91810699 46.30407135 30.93440247 45.28804016 C30.96845936 40.40247074 30.96845936 40.40247074 28.45291328 36.47977448 C26.02970609 35.03607061 23.85764355 34 21 34 Z M45 47 C45 77.03 45 107.06 45 138 C53.58 142.62 62.16 147.24 71 152 C83.4375 159 83.4375 159 88.80859375 162.0625 C92.54273881 164.18120437 96.28177577 166.29053443 100.03515625 168.375 C100.93758057 168.87773437 101.84000488 169.38046875 102.76977539 169.8984375 C104.88429237 171.14761682 104.88429237 171.14761682 107 171 C107.09364197 163.71418747 107.16423333 156.42850953 107.20724869 149.14221191 C107.22791829 145.75702305 107.25584479 142.37225275 107.30175781 138.98730469 C107.61034888 114.42708654 106.10949388 92.69711276 88.32080078 74.13354492 C76.72725157 62.60052115 60.56455669 52.18818556 45 47 Z " fill="#FFFFFF" transform="translate(122,100)"/>
<path d="M0 0 C2.99658203 1.32836914 2.99658203 1.32836914 6.0078125 3.03515625 C7.14452393 3.67155029 8.28123535 4.30794434 9.45239258 4.96362305 C10.676639 5.66317179 11.90084025 6.36279959 13.125 7.0625 C14.41038812 7.78609168 15.69645277 8.50848276 16.9831543 9.22973633 C19.65762117 10.730177 22.32910301 12.23573854 24.99853516 13.74511719 C30.64349017 16.93227332 36.32042633 20.06117022 41.99887085 23.18814087 C43.81434801 24.1885183 45.62861271 25.19106444 47.44262695 26.1940918 C54.18694508 29.920212 60.95636237 33.59610675 67.74975586 37.23217773 C92.24963478 50.37364328 112.98329838 62.51740816 123.02734375 89.76953125 C125.29552042 97.30279271 126.29849647 104.25139929 126.29052734 112.11865234 C126.29724457 113.08740799 126.30396179 114.05616364 126.31088257 115.05427551 C126.32975737 118.23154948 126.3337812 121.40861109 126.3359375 124.5859375 C126.34237186 126.81116826 126.34910069 129.03639818 126.35610962 131.2616272 C126.36805547 135.91662558 126.37179313 140.57154988 126.37060547 145.2265625 C126.37040224 151.17009539 126.39772112 157.11315037 126.43214989 163.05657005 C126.45446298 167.64987338 126.45844168 172.24306238 126.45738602 176.83641434 C126.45973468 179.02671584 126.46851642 181.21702085 126.48405075 183.40726852 C126.58135384 198.54065106 126.48786342 210.38520825 115.44140625 221.83203125 C110.47449174 226.24265134 105.54772878 228.88963341 99 230 C100.43770951 226.16610796 102.19830545 222.58436131 104.09765625 218.96484375 C105.64110011 215.60401145 106.12511349 212.51022801 106.14717102 208.83026123 C106.15432632 208.00646973 106.16148163 207.18267822 106.16885376 206.33392334 C106.17154266 205.43836731 106.17423157 204.54281128 106.17700195 203.62011719 C106.18685875 202.19475647 106.18685875 202.19475647 106.19691467 200.74060059 C106.21663548 197.59269119 106.22831315 194.44482969 106.23828125 191.296875 C106.24235678 190.21725746 106.2464323 189.13763992 106.25063133 188.0253067 C106.27149578 182.30105278 106.28579088 176.57682279 106.29516602 170.85253906 C106.30617735 164.97551845 106.34051496 159.09888202 106.38033772 153.22199631 C106.40665969 148.67481854 106.41487204 144.12772971 106.41844749 139.58048248 C106.42328033 137.41663291 106.43479837 135.25278642 106.45348549 133.08901215 C106.65123527 108.65528607 101.97861614 89.58635361 84.75 71.375 C76.37760336 63.29316331 65.76917621 58.09141205 55.625 52.5625 C54.35696862 51.8678132 53.08915104 51.17273603 51.8215332 50.47729492 C49.19413953 49.03616761 46.5658451 47.59670227 43.93701172 46.15820312 C40.12065227 44.06818835 36.31120636 41.9658385 32.50390625 39.859375 C31.59155212 39.3547448 31.59155212 39.3547448 30.6607666 38.83992004 C29.44158034 38.16556398 28.22240304 37.49119172 27.00323486 36.81680298 C19.40730621 32.61541106 11.80779379 28.42332778 4.16015625 24.31640625 C3.07774658 23.73463623 1.99533691 23.15286621 0.88012695 22.5534668 C-1.12821687 21.47653334 -3.13862444 20.40343463 -5.15161133 19.33520508 C-11.00204543 16.19957265 -16.54953852 12.78922506 -22 9 C-19.32713077 6.22530718 -16.54293199 4.27256229 -13.25 2.25 C-11.74179688 1.29867187 -11.74179688 1.29867187 -10.203125 0.328125 C-6.20818148 -1.32831499 -4.20245723 -0.88353774 0 0 Z " fill="#FFFFFF" transform="translate(149,85)"/>
<path d="M0 0 C1.96564364 0.91030864 3.89878391 1.89233713 5.8046875 2.921875 C6.93342285 3.52845947 8.0621582 4.13504395 9.22509766 4.76000977 C10.44188215 5.42306395 11.65851249 6.0864011 12.875 6.75 C14.1396378 7.43383314 15.40445126 8.11734152 16.66943359 8.80053711 C25.30762023 13.47837074 33.87295091 18.27980063 42.40478516 23.14892578 C49.6251867 27.25853661 56.92332978 31.20852492 64.25 35.125 C114.55198992 62.12762472 114.55198992 62.12762472 124.12001038 90.29750061 C127.45347178 102.25543748 127.56793319 113.76828341 127.49609375 126.12109375 C127.4962491 128.31869047 127.49774408 130.51628746 127.50050354 132.71388245 C127.50187848 137.28846553 127.48947502 141.8627316 127.46655273 146.43725586 C127.43805277 152.28322095 127.44094969 158.12866508 127.45364285 163.97466946 C127.46061173 168.50013135 127.45279881 173.02547385 127.44038582 177.55092049 C127.43589141 179.70656946 127.43551681 181.86223133 127.43945122 184.01788139 C127.44237837 187.02968368 127.42578857 190.04077776 127.40405273 193.05249023 C127.41080521 194.36885971 127.41080521 194.36885971 127.41769409 195.71182251 C127.3036899 205.27293186 124.33687633 213.7521977 118 221 C112.83999768 225.3413481 106.99232208 230 100 230 C100.28746094 229.4328125 100.57492187 228.865625 100.87109375 228.28125 C101.98081337 226.0387716 103.03513074 223.78130665 104.0625 221.5 C104.57490234 220.37078125 104.57490234 220.37078125 105.09765625 219.21875 C106.51484501 215.73406074 107.12441262 212.6258507 107.14717102 208.8682251 C107.15432632 208.05284775 107.16148163 207.2374704 107.16885376 206.39738464 C107.17154266 205.51117935 107.17423157 204.62497406 107.17700195 203.71191406 C107.18685875 202.3011837 107.18685875 202.3011837 107.19691467 200.86195374 C107.21663458 197.74650994 107.22831302 194.63111455 107.23828125 191.515625 C107.24235678 190.44704002 107.2464323 189.37845505 107.25063133 188.27748871 C107.27149553 182.6115895 107.28579066 176.94571447 107.29516602 171.27978516 C107.30617654 165.46329687 107.34051326 159.64719684 107.38033772 153.83084488 C107.4066627 149.3299902 107.4148723 144.82922535 107.41844749 140.32830048 C107.42327966 138.18677933 107.43479572 136.04526127 107.45348549 133.90381622 C107.57974168 118.46676161 106.78248616 103.73160212 99.4375 89.75 C99.10016846 89.09580078 98.76283691 88.44160156 98.4152832 87.76757812 C89.79233687 71.88880877 75.02029739 62.78217938 59.5 54.4375 C58.22650636 53.74523591 56.95348504 53.0521023 55.6809082 52.3581543 C53.72189361 51.29014049 51.76255241 50.2227743 49.80158997 49.15834045 C43.23513561 45.59372302 36.71142678 41.95435743 30.1875 38.3125 C20.56265347 32.95138104 10.89359406 27.67797844 1.19604492 22.44970703 C-6.27173459 18.41584908 -13.66663694 14.2734915 -21 10 C-17.74158724 6.54088791 -14.65878252 3.92634875 -10.5 1.625 C-9.12328125 0.83996094 -9.12328125 0.83996094 -7.71875 0.0390625 C-4.46696347 -1.20371798 -3.3162434 -0.92061082 0 0 Z " fill="#FFFFFF" transform="translate(174,70)"/>
</svg>
