<svg xmlns="http://www.w3.org/2000/svg" width="212" height="34" viewBox="0 0 212 34" fill="none">
<g clip-path="url(#clip0_4686_10335)">
<path d="M55.9461 1.97483C55.5773 1.96037 55.2096 2.0241 54.8653 2.16214C54.5211 2.30017 54.2075 2.50962 53.9438 2.7777C53.6976 3.04297 53.5055 3.35714 53.379 3.70138C53.2525 4.04562 53.1942 4.41284 53.2076 4.78104C53.1929 5.14939 53.2506 5.51698 53.3772 5.86141C53.5037 6.20584 53.6965 6.51988 53.9438 6.78438C54.4883 7.30891 55.2034 7.60036 55.9461 7.60036C56.6887 7.60036 57.4039 7.30891 57.9483 6.78438C58.1984 6.50626 58.3924 6.17896 58.5188 5.82177C58.6452 5.46458 58.7016 5.08473 58.6845 4.70458C58.6981 4.34553 58.6397 3.98747 58.5129 3.65312C58.3862 3.31878 58.1939 3.01545 57.9483 2.7624C57.6812 2.5003 57.3667 2.29575 57.023 2.16057C56.6794 2.0254 56.3133 1.96227 55.9461 1.97483Z" fill="white"/>
<path d="M58.1841 10.0189H53.7158V27.399H58.1841V10.0189Z" fill="white"/>
<path d="M68.9176 21.8402L64.648 10.0189H60.0398L66.5104 27.399H71.1187L77.6187 10.0189H73.3271L68.9176 21.8402Z" fill="white"/>
<path d="M117.253 9.75881C116.154 9.75282 115.07 10.0147 114.087 10.5234C113.135 11.0085 112.313 11.7309 111.695 12.6262C111.19 11.7306 110.456 10.9976 109.575 10.5081C108.666 10.0176 107.654 9.76807 106.63 9.78175C105.688 9.76956 104.754 9.96773 103.892 10.3629C103.072 10.743 102.35 11.3195 101.786 12.0451V10.0188H97.5242V27.3989H101.985V18.6744C101.902 17.4613 102.227 16.2557 102.905 15.2642C103.202 14.8886 103.578 14.5896 104.005 14.3906C104.432 14.1916 104.897 14.098 105.364 14.1172C107.327 14.1172 108.309 15.4859 108.309 18.2233V27.3989H112.777V18.6744C112.692 17.4622 113.014 16.2567 113.69 15.2642C113.992 14.8861 114.375 14.5858 114.808 14.3868C115.241 14.1879 115.712 14.0956 116.185 14.1172C116.597 14.0945 117.008 14.1751 117.383 14.3521C117.759 14.5291 118.088 14.7974 118.342 15.1342C118.898 16.0448 119.156 17.1175 119.078 18.1927V27.3683H123.547V17.4281C123.547 14.8793 122.98 12.9575 121.846 11.6627C121.256 11.0221 120.541 10.5205 119.749 10.1921C118.956 9.86357 118.105 9.71582 117.253 9.75881Z" fill="white"/>
<path d="M177.991 10.8752C176.815 10.1304 175.46 9.74358 174.082 9.7588C173.158 9.70589 172.234 9.887 171.392 10.2866C170.55 10.6861 169.813 11.2922 169.246 12.0527V10.0188H164.976V33.019L169.445 31.7726V25.5561C170.011 26.2513 170.724 26.8017 171.529 27.165C172.333 27.5283 173.207 27.6947 174.082 27.6512C175.46 27.6688 176.814 27.2846 177.991 26.5425C179.177 25.7857 180.136 24.6999 180.759 23.4075C181.45 21.9456 181.793 20.3331 181.76 18.705C181.796 17.0693 181.452 15.4487 180.759 13.9796C180.132 12.6978 179.174 11.6228 177.991 10.8752ZM176.136 22.207C175.781 22.6202 175.346 22.9507 174.86 23.1771C174.373 23.4034 173.846 23.5204 173.313 23.5204C172.78 23.5204 172.253 23.4034 171.767 23.1771C171.28 22.9507 170.845 22.6202 170.49 22.207C169.716 21.2227 169.322 19.9743 169.386 18.705C169.323 17.4358 169.717 16.1877 170.49 15.203C170.846 14.792 171.282 14.4634 171.768 14.2384C172.254 14.0135 172.781 13.8972 173.313 13.8972C173.846 13.8972 174.372 14.0135 174.858 14.2384C175.345 14.4634 175.78 14.792 176.136 15.203C176.904 16.1905 177.295 17.4373 177.233 18.705C177.296 19.9729 176.905 21.2202 176.136 22.207Z" fill="white"/>
<path d="M208.871 10.4012C207.992 10.8152 207.242 11.4776 206.707 12.3128V10.0189H202.438V27.399H206.906V19.1869C206.81 17.8775 207.197 16.5791 207.988 15.5549C208.379 15.144 208.85 14.8239 209.369 14.6157C209.888 14.4075 210.443 14.3158 210.999 14.3467C211.168 14.3467 211.499 14.3467 212 14.4079V9.75893C210.925 9.73739 209.858 9.95645 208.871 10.4012Z" fill="white"/>
<path d="M158.27 10.8753C157.093 10.1305 155.739 9.7437 154.361 9.75892C153.435 9.70606 152.511 9.88715 151.667 10.2867C150.823 10.6862 150.086 11.2922 149.517 12.0528V10.0189H145.255V33.0191L149.723 31.7727V25.5563C150.289 26.2527 151.001 26.8042 151.806 27.1676C152.61 27.531 153.485 27.6965 154.361 27.6514C155.738 27.6689 157.092 27.2848 158.27 26.5426C159.451 25.7831 160.407 24.6979 161.03 23.4076C161.724 21.9469 162.068 20.3336 162.031 18.7051C162.061 17.0666 161.707 15.445 161.001 13.9797C160.382 12.704 159.437 11.6299 158.27 10.8753ZM156.407 22.2072C156.052 22.6203 155.617 22.9509 155.131 23.1772C154.644 23.4036 154.117 23.5206 153.584 23.5206C153.051 23.5206 152.524 23.4036 152.037 23.1772C151.551 22.9509 151.116 22.6203 150.761 22.2072C149.992 21.2203 149.601 19.9731 149.664 18.7051C149.603 17.4374 149.993 16.1906 150.761 15.2031C151.117 14.7921 151.553 14.4635 152.039 14.2385C152.525 14.0136 153.052 13.8974 153.584 13.8974C154.117 13.8974 154.643 14.0136 155.129 14.2385C155.616 14.4635 156.051 14.7921 156.407 15.2031C157.178 16.1889 157.569 17.4369 157.504 18.7051C157.562 19.9775 157.16 21.2265 156.378 22.2072H156.407Z" fill="white"/>
<path d="M48.4614 11.6858C47.8656 11.041 47.1447 10.5351 46.3465 10.2016C45.5482 9.86811 44.6908 9.71459 43.8311 9.75124C42.8909 9.74032 41.9578 9.92221 41.0854 10.2865C40.2686 10.6245 39.5344 11.1469 38.9358 11.8157V3.40477L34.4749 4.66642V27.399H38.9358V18.8045C38.849 17.5472 39.2047 16.3 39.937 15.2948C40.2752 14.905 40.6919 14.5973 41.1576 14.3938C41.6233 14.1903 42.1264 14.0959 42.6312 14.1173C43.0671 14.0892 43.5033 14.1665 43.9056 14.3429C44.308 14.5193 44.6655 14.7902 44.9501 15.1343C45.5432 16.03 45.826 17.1083 45.7525 18.1928V27.3684H50.2208V17.4282C50.2208 14.8998 49.6344 12.9856 48.4614 11.6858Z" fill="white"/>
<path d="M199.734 20.0966H188.081C188.248 21.1132 188.773 22.029 189.554 22.6658C190.403 23.3197 191.442 23.6517 192.498 23.6063C193.229 23.623 193.955 23.4851 194.633 23.201C195.291 22.9058 195.881 22.4679 196.363 21.9164L198.755 24.8297C197.283 26.7107 195.165 27.6512 192.403 27.6512C190.796 27.686 189.209 27.2883 187.794 26.4966C186.487 25.7621 185.412 24.6526 184.695 23.3004C183.959 21.8719 183.586 20.2716 183.613 18.6515C183.588 17.0398 183.958 15.4481 184.688 14.0254C185.364 12.6902 186.383 11.5759 187.632 10.8063C188.904 10.032 190.355 9.63275 191.828 9.65171C193.264 9.63439 194.677 10.0173 195.921 10.7604C197.137 11.5135 198.12 12.6119 198.755 13.926C199.478 15.4106 199.837 17.0573 199.801 18.7203C199.823 18.7814 199.793 19.2402 199.734 20.0966ZM189.289 14.4766C188.571 15.1777 188.123 16.1263 188.03 17.1451H195.612C195.509 16.1258 195.057 15.1787 194.339 14.4766C193.655 13.8193 192.752 13.4653 191.821 13.4902C190.888 13.4636 189.981 13.8114 189.289 14.4613V14.4766Z" fill="white"/>
<path d="M94.4535 20.1731H82.8005C82.967 21.1897 83.4919 22.1055 84.2727 22.7423C85.1219 23.3962 86.1611 23.7282 87.2173 23.6828C87.9477 23.6957 88.6733 23.558 89.3521 23.2775C90.0074 22.977 90.5962 22.5398 91.082 21.9929L93.4892 24.9139C92.0169 26.7999 89.887 27.743 87.0995 27.743C85.4932 27.7778 83.9056 27.3801 82.4913 26.5884C81.1849 25.8559 80.1109 24.7457 79.3995 23.3922C78.6575 21.9657 78.2823 20.3644 78.31 18.7432C78.2835 17.1314 78.6534 15.5391 79.3848 14.1172C80.059 12.7806 81.0787 11.6658 82.3293 10.8981C83.5902 10.1503 85.0152 9.7526 86.467 9.74323C87.9189 9.73385 89.3486 10.1132 90.6182 10.8446C91.8464 11.5971 92.8423 12.6979 93.4892 14.0178C94.2106 15.5 94.5696 17.1439 94.5345 18.8044C94.5418 18.8732 94.5124 19.332 94.4535 20.1731ZM84.0077 14.5531C83.2916 15.2523 82.8443 16.1979 82.7489 17.214H90.3311C90.2291 16.2043 89.7826 15.2658 89.0724 14.5683C88.3899 13.909 87.4866 13.5524 86.5548 13.5743C85.6158 13.5459 84.7028 13.8967 84.0077 14.5531Z" fill="white"/>
<path d="M139.27 11.6857C140.541 12.9703 141.179 14.9049 141.184 17.4893V27.4296H137.003V25.2351C136.164 26.8484 134.603 27.6513 132.306 27.6513C131.244 27.6792 130.19 27.4487 129.229 26.9784C128.407 26.5659 127.717 25.9154 127.242 25.1051C126.78 24.2819 126.543 23.3433 126.557 22.3906C126.524 21.6674 126.652 20.946 126.931 20.2827C127.211 19.6195 127.635 19.0324 128.169 18.5675C129.249 17.6397 130.915 17.1784 133.167 17.1835H136.723C136.751 16.7194 136.687 16.2541 136.534 15.8172C136.38 15.3803 136.142 14.9811 135.832 14.6449C135.091 13.9963 134.133 13.6776 133.167 13.7579C132.342 13.7591 131.523 13.9065 130.746 14.1937C130.008 14.4519 129.324 14.8513 128.729 15.3713L127.131 11.854C128.038 11.1561 129.061 10.6377 130.149 10.3247C131.324 9.95702 132.544 9.77151 133.771 9.77415C136.156 9.76396 137.989 10.4012 139.27 11.6857ZM135.449 23.6676C136.058 23.2512 136.506 22.626 136.716 21.9013V20.0967H133.646C131.81 20.0967 130.895 20.7747 130.9 22.1306C130.889 22.4222 130.944 22.7124 131.06 22.978C131.176 23.2436 131.351 23.4772 131.57 23.6599C132.105 24.0634 132.758 24.2632 133.418 24.2257C134.133 24.2487 134.839 24.0548 135.449 23.6676Z" fill="white"/>
<path d="M10.3797 27.3759H18.0577L6.53711 20.4713L10.3797 27.3759Z" fill="#2F7BED"/>
<path d="M25.7059 10.0418L23.733 6.4862H28.1057C27.8414 6.00918 27.4606 5.61305 27.0018 5.33782C26.5429 5.06259 26.0223 4.91802 25.4924 4.9187H22.8644L21.5541 2.54833C21.2846 2.07894 20.9017 1.69088 20.4433 1.42263C19.9849 1.15438 19.4669 1.01526 18.9408 1.01907L21.1492 4.96458H17.1667L15.7901 7.39612C12.9359 6.89306 10.0019 7.30915 7.38195 8.5885C4.76203 9.86785 2.58167 11.9492 1.13365 14.5531C0.678072 15.3808 0.298514 16.2512 0 17.1529H8.46557L19.8757 24.0346L24.1011 31.6809C24.7017 30.9718 25.2342 30.2035 25.6912 29.387C27.1376 26.7826 27.7824 23.781 27.539 20.7849C27.2956 17.7889 26.1755 14.9419 24.3293 12.6262L25.7059 10.0418ZM19.9788 20.2955L16.7545 18.361L14.7227 17.1376L11.4616 15.1801L13.2505 11.9763L21.7823 17.0917L19.9788 20.2955Z" fill="#2F7BED"/>
</g>
<defs>
<clipPath id="clip0_4686_10335">
<rect width="212.007" height="32.0382" fill="white" transform="translate(0 0.980904)"/>
</clipPath>
</defs>
<style xmlns="" class="darkreader darkreader--fallback">html, body, body :not(iframe) {
    background-color: var(--darkreader-background-ffffff, #181a1b) !important;
    border-color: var(--darkreader-border-404040, #776e62) !important;
    color: var(--darkreader-text-000000, #e8e6e3) !important;
}
div[style*="background-color: rgb(135, 135, 135)"] {
    background-color: #878787 !important;
}</style></svg>