<svg width="206" height="199" viewBox="0 0 206 199" fill="none" xmlns="http://www.w3.org/2000/svg">
<path d="M180.778 163.85L181.138 163.58H180.698L180.558 163.16L180.418 163.58H179.968L180.328 163.85L180.198 164.27L180.558 164.01L180.918 164.27L180.778 163.85Z" fill="white"/>
<path d="M204.967 155.99C204.967 158.9 204.667 161.73 204.107 164.48C203.717 166.39 203.197 168.27 202.557 170.07C202.217 171.02 201.847 171.96 201.447 172.88C200.187 175.77 198.607 178.49 196.777 180.99C196.657 181.15 196.547 181.3 196.437 181.45C195.727 182.39 194.987 183.28 194.207 184.15C194.197 184.15 194.197 184.16 194.197 184.16C194.057 184.31 193.907 184.47 193.767 184.64C190.657 188.01 186.997 190.87 182.937 193.1C176.937 196.37 170.057 198.23 162.737 198.23C155.417 198.23 148.537 196.37 142.537 193.1C140.187 191.81 137.977 190.32 135.937 188.63C134.957 187.84 134.037 187 133.137 186.13C132.647 185.64 132.157 185.14 131.687 184.64C131.547 184.48 131.397 184.31 131.267 184.16C131.257 184.16 131.257 184.15 131.257 184.15C130.487 183.28 129.737 182.39 129.027 181.45C128.917 181.3 128.797 181.15 128.687 180.99C126.837 178.49 125.267 175.78 124.007 172.88C123.617 171.96 123.247 171.02 122.907 170.07C122.267 168.26 121.737 166.39 121.347 164.48C120.787 161.74 120.507 158.9 120.507 155.99C120.507 153.38 120.737 150.83 121.197 148.36C121.237 148.07 121.297 147.79 121.347 147.5C121.737 145.59 122.267 143.71 122.907 141.91C123.247 140.95 123.617 140.01 124.007 139.09H124.017C125.277 136.21 126.837 133.5 128.687 130.99C128.797 130.84 128.917 130.69 129.027 130.54C129.737 129.6 130.477 128.69 131.257 127.82H131.267C131.407 127.66 131.557 127.49 131.687 127.34C132.167 126.82 132.647 126.32 133.137 125.85C134.037 124.97 134.957 124.14 135.937 123.34C137.977 121.66 140.187 120.16 142.537 118.89C148.167 115.82 154.597 113.99 161.407 113.79C161.857 113.78 162.287 113.76 162.737 113.76C170.057 113.76 176.937 115.62 182.937 118.89C186.997 121.1 190.657 123.97 193.767 127.35C193.917 127.5 194.067 127.66 194.197 127.83H194.207C194.977 128.7 195.727 129.61 196.437 130.55C196.547 130.7 196.657 130.85 196.777 131C198.607 133.51 200.187 136.23 201.447 139.1C201.857 140.02 202.217 140.96 202.557 141.91C203.197 143.73 203.707 145.6 204.107 147.52C204.667 150.26 204.967 153.1 204.967 156.01V155.99Z" fill="#129D49"/>
<path d="M202.477 156C202.477 158.46 202.257 160.91 201.787 163.35L162.727 188.29L123.667 163.35C123.197 160.94 122.997 158.49 122.997 156C122.997 153.51 123.217 151.14 123.667 148.7C123.667 148.68 123.667 148.63 123.687 148.6L162.727 123.66L201.787 148.6C202.257 151.03 202.477 153.51 202.477 156Z" fill="#FBD800"/>
<path d="M184.317 155.99C184.317 156.98 184.247 157.95 184.127 158.9C184.127 158.94 184.117 158.98 184.107 159.02C183.947 160.19 183.687 161.33 183.337 162.44C183.327 162.47 183.317 162.51 183.307 162.54C180.537 171.26 172.367 177.58 162.727 177.58C150.807 177.58 141.137 167.91 141.137 155.99C141.137 154.15 141.367 152.37 141.797 150.67C141.797 150.63 141.817 150.6 141.827 150.57C142.127 149.43 142.507 148.32 142.977 147.27C142.997 147.23 143.007 147.2 143.027 147.16C146.407 139.64 153.957 134.41 162.727 134.41C174.647 134.41 184.317 144.08 184.317 156V155.99Z" fill="#233A75"/>
<path d="M184.127 158.9C184.127 158.9 184.117 158.98 184.107 159.02C183.947 160.19 183.688 161.33 183.338 162.44C183.328 162.47 183.318 162.51 183.308 162.54L183.278 162.51C174.238 154.39 162.558 149.92 150.398 149.92C147.528 149.92 144.658 150.17 141.848 150.66H141.807C141.807 150.66 141.827 150.6 141.837 150.56C142.137 149.42 142.518 148.31 142.988 147.26C143.008 147.22 143.018 147.19 143.038 147.15C145.458 146.81 147.938 146.64 150.408 146.64C156.698 146.64 162.847 147.74 168.697 149.91C174.327 152 179.517 155.02 184.137 158.9H184.127Z" fill="white"/>
<path d="M170.257 148.91L170.797 148.51H170.127L169.917 147.87L169.707 148.51H169.037L169.587 148.91L169.377 149.55L169.917 149.15L170.467 149.55L170.257 148.91Z" fill="white"/>
<path d="M145.637 152.27L146.187 151.88H145.507L145.307 151.24L145.097 151.88H144.427L144.967 152.27L144.757 152.91L145.307 152.51L145.847 152.91L145.637 152.27Z" fill="white"/>
<path d="M147.548 161.35L148.088 160.95H147.418L147.208 160.31L147.008 160.95H146.328L146.878 161.35L146.668 161.99L147.208 161.59L147.758 161.99L147.548 161.35Z" fill="white"/>
<path d="M144.857 163.27L145.307 162.94H144.747L144.577 162.4L144.397 162.94H143.837L144.297 163.27L144.117 163.8L144.577 163.47L145.027 163.8L144.857 163.27Z" fill="white"/>
<path d="M149.497 159.96L149.767 159.77H149.437L149.337 159.45L149.227 159.77H148.897L149.167 159.96L149.067 160.28L149.337 160.08L149.607 160.28L149.497 159.96Z" fill="white"/>
<path d="M151.987 163.47L152.437 163.14H151.877L151.707 162.61L151.537 163.14H150.977L151.427 163.47L151.257 164.01L151.707 163.68L152.157 164.01L151.987 163.47Z" fill="white"/>
<path d="M154.757 157.08L155.217 156.76H154.657L154.477 156.22L154.307 156.76H153.747L154.197 157.08L154.027 157.62L154.477 157.29L154.937 157.62L154.757 157.08Z" fill="white"/>
<path d="M162.988 159.67L163.438 159.34H162.878L162.708 158.81L162.528 159.34H161.968L162.428 159.67L162.248 160.2L162.708 159.87L163.158 160.2L162.988 159.67Z" fill="white"/>
<path d="M165.478 161.61L165.938 161.28H165.378L165.198 160.75L165.028 161.28H164.468L164.918 161.61L164.748 162.14L165.198 161.81L165.658 162.14L165.478 161.61Z" fill="white"/>
<path d="M163.038 165.92L163.588 165.52H162.908L162.708 164.88L162.498 165.52H161.828L162.368 165.92L162.158 166.56L162.708 166.16L163.248 166.56L163.038 165.92Z" fill="white"/>
<path d="M160.758 161.58L161.118 161.32H160.678L160.538 160.9L160.408 161.32H159.968L160.328 161.58L160.188 161.99L160.538 161.74L160.898 161.99L160.758 161.58Z" fill="white"/>
<path d="M161.778 163.07L162.038 162.88H161.718L161.618 162.57L161.518 162.88H161.198L161.458 163.07L161.358 163.37L161.618 163.18L161.878 163.37L161.778 163.07Z" fill="white"/>
<path d="M151.067 165.68L151.447 165.4H150.987L150.837 164.96L150.697 165.4H150.227L150.607 165.68L150.457 166.13L150.837 165.85L151.217 166.13L151.067 165.68Z" fill="white"/>
<path d="M154.377 167.68L154.917 167.28H154.247L154.037 166.64L153.827 167.28H153.157L153.707 167.68L153.497 168.32L154.037 167.92L154.587 168.32L154.377 167.68Z" fill="white"/>
<path d="M167.417 168.16L167.777 167.9H167.327L167.187 167.47L167.057 167.9H166.607L166.967 168.16L166.827 168.59L167.187 168.33L167.557 168.59L167.417 168.16Z" fill="white"/>
<path d="M170.967 168.69L171.327 168.43H170.887L170.747 168L170.607 168.43H170.157L170.517 168.69L170.387 169.12L170.747 168.85L171.107 169.12L170.967 168.69Z" fill="white"/>
<path d="M173.378 167.96L173.738 167.69H173.288L173.158 167.27L173.018 167.69H172.568L172.928 167.96L172.788 168.38L173.158 168.12L173.518 168.38L173.378 167.96Z" fill="white"/>
<path d="M175.607 168.37L175.977 168.11H175.527L175.387 167.68L175.247 168.11H174.797L175.157 168.37L175.027 168.8L175.387 168.53L175.747 168.8L175.607 168.37Z" fill="white"/>
<path d="M178.718 165.57L179.178 165.24H178.618L178.438 164.71L178.268 165.24H177.708L178.158 165.57L177.988 166.1L178.438 165.77L178.898 166.1L178.718 165.57Z" fill="white"/>
<path d="M177.897 163.68L178.437 163.28H177.767L177.557 162.64L177.347 163.28H176.677L177.227 163.68L177.017 164.32L177.557 163.92L178.107 164.32L177.897 163.68Z" fill="white"/>
<path d="M177.397 167.3L177.847 166.97H177.287L177.117 166.44L176.947 166.97H176.387L176.837 167.3L176.667 167.83L177.117 167.5L177.567 167.83L177.397 167.3Z" fill="white"/>
<path d="M173.437 172.25L173.797 171.98H173.347L173.217 171.56L173.077 171.98H172.627L172.987 172.25L172.847 172.67L173.217 172.41L173.577 172.67L173.437 172.25Z" fill="white"/>
<path d="M173.517 170.09L173.977 169.76H173.417L173.237 169.23L173.067 169.76H172.507L172.957 170.09L172.787 170.62L173.237 170.29L173.697 170.62L173.517 170.09Z" fill="white"/>
<path d="M169.177 170.62L169.627 170.29H169.067L168.897 169.76L168.717 170.29H168.157L168.617 170.62L168.437 171.15L168.897 170.82L169.347 171.15L169.177 170.62Z" fill="white"/>
<path d="M168.778 155.02L169.138 154.76H168.698L168.558 154.33L168.418 154.76H167.968L168.328 155.02L168.188 155.45L168.558 155.19L168.918 155.45L168.778 155.02Z" fill="white"/>
<path d="M162.797 172.97L162.997 172.83H162.757L162.677 172.6L162.607 172.83H162.357L162.557 172.97L162.487 173.2L162.677 173.06L162.877 173.2L162.797 172.97Z" fill="white"/>
<path d="M87.0475 0.0100002V80.49H52.9275L63.7575 84.97C98.1075 100.88 96.6075 157.47 52.4975 157.47H0.447475V76.99H38.0575C37.5575 76.99 29.6375 75.01 27.7675 74.18C24.9075 72.91 21.0375 71.38 18.2075 69.28C-11.5825 48.64 -4.41253 0 36.7475 0H87.0475V0.0100002Z" fill="#008B4C"/>
<path d="M205.137 24.51V44.18C205.137 61.84 187.267 78.66 170.487 81.27C167.377 81.76 164.257 81.83 161.387 81.83V100.21C152.517 100.41 143.777 102.75 136.017 106.97C132.937 108.65 130.007 110.62 127.297 112.86C126.017 113.89 124.787 115 123.617 116.16C122.967 116.8 122.327 117.46 121.707 118.13C121.507 118.35 121.317 118.55 121.137 118.77H121.127C120.107 119.92 119.117 121.12 118.177 122.34C118.027 122.54 117.877 122.75 117.727 122.95C115.287 126.28 113.207 129.87 111.547 133.65C111.057 134.79 110.597 135.94 110.187 137.1C108.527 134.56 107.077 131.74 105.847 128.59C97.4575 107.14 100.637 52.4 100.117 26.73C99.9275 17.84 100.317 8.90001 100.147 0.0100098H161.387V24.53L162.707 24.51H205.137Z" fill="#008B4C"/>
</svg>
