<svg version="1.2" xmlns="http://www.w3.org/2000/svg" viewBox="35 125 285 70" width="340" height="70"><style>.a{fill:#fff}.b{fill:#129d49}.c{fill:#fbd800}.d{fill:#233a75}.e{fill:#306c40}</style><path class="a" d="m63.3 174.5l0.1-0.1h-0.1v-0.1 0.1h-0.1v0.1 0.1l0.1-0.1 0.1 0.1z"/><path class="a" d="m47.9 167.8z"/><path class="b" d="m69.3 172.6q0 1-0.2 2-0.2 0.7-0.4 1.4-0.1 0.4-0.3 0.7-0.5 1.1-1.1 2-0.1 0-0.1 0.1-0.3 0.3-0.6 0.7 0 0 0 0 0 0-0.1 0.1-1.1 1.2-2.6 2c-1.5 0.8-3.2 1.3-5 1.3-1.8 0-3.4-0.5-4.9-1.3q-0.9-0.4-1.6-1-0.4-0.3-0.7-0.7-0.2-0.1-0.4-0.3 0-0.1-0.1-0.1 0 0 0 0-0.3-0.4-0.5-0.7-0.1-0.1-0.1-0.1-0.7-0.9-1.1-2-0.2-0.3-0.3-0.7-0.3-0.7-0.4-1.4-0.2-1-0.2-2 0-1 0.2-1.9 0-0.1 0-0.2 0.1-0.7 0.4-1.4 0.1-0.3 0.3-0.7 0 0 0 0 0.4-1 1.1-2 0 0 0.1-0.1 0.2-0.3 0.5-0.6 0 0 0 0 0.1-0.1 0.1-0.1 0.2-0.2 0.4-0.4 0.3-0.3 0.7-0.6 0.7-0.6 1.6-1.1c1.4-0.8 2.9-1.2 4.6-1.3q0.2 0 0.3 0c1.8 0 3.5 0.5 5 1.3q1.5 0.8 2.6 2.1 0.1 0 0.1 0.1 0 0 0 0 0.3 0.3 0.6 0.6 0 0.1 0.1 0.1 0.6 1 1.1 2 0.2 0.4 0.3 0.7 0.2 0.7 0.4 1.4 0.2 1 0.2 2.1z"/><path class="a" d="m47.9 167.8z"/><path class="c" d="m68.7 172.6q0 0.9-0.2 1.8l-9.6 6.1-9.5-6.1q-0.2-0.9-0.2-1.8 0-0.9 0.2-1.8 0 0 0 0l9.5-6.1 9.6 6.1q0.2 0.9 0.2 1.8z"/><path class="d" d="m64.2 172.6q0 0.3 0 0.7 0 0 0 0-0.1 0.4-0.2 0.8 0 0.1 0 0.1c-0.7 2.1-2.7 3.6-5.1 3.6-2.9 0-5.3-2.3-5.3-5.2q0-0.7 0.2-1.3 0-0.1 0-0.1 0.1-0.4 0.3-0.8 0 0 0 0c0.8-1.8 2.7-3.1 4.8-3.1 2.9 0 5.3 2.3 5.3 5.3z"/><path class="a" d="m64.2 173.3q0 0 0 0-0.1 0.4-0.2 0.8 0 0.1 0 0.1c-2.3-2-5.1-3.1-8.1-3.1q-1 0-2.1 0.2 0-0.1 0-0.1 0.1-0.4 0.3-0.8 0 0 0 0 0.9-0.1 1.8-0.1 2.3 0 4.5 0.8 2.1 0.7 3.8 2.2z"/><path class="a" d="m60.8 170.8l0.1-0.1h-0.2v-0.1l-0.1 0.1h-0.1l0.1 0.1v0.2l0.1-0.1 0.1 0.1z"/><path class="a" d="m54.7 171.7l0.2-0.1h-0.2v-0.2l-0.1 0.2h-0.1l0.1 0.1-0.1 0.1 0.2-0.1 0.1 0.1z"/><path class="a" d="m55.2 173.9l0.1-0.1h-0.1l-0.1-0.2v0.2h-0.2l0.2 0.1-0.1 0.1 0.1-0.1 0.2 0.1z"/><path class="a" d="m54.6 174.3h0.1-0.2v-0.2l-0.1 0.2h-0.1 0.1v0.2l0.1-0.1 0.1 0.1z"/><path class="a" d="m55.7 173.5h0.1-0.1v-0.1l-0.1 0.1h-0.1 0.1v0.1h0.1z"/><path class="a" d="m56.3 174.4l0.1-0.1h-0.1l-0.1-0.1v0.1h-0.1l0.1 0.1-0.1 0.1 0.1-0.1 0.1 0.1z"/><path class="a" d="m57 172.8h0.1-0.1l-0.1-0.2v0.2h-0.2 0.1v0.2l0.1-0.1 0.1 0.1z"/><path class="a" d="m59 173.5l0.1-0.1h-0.1l-0.1-0.1v0.1h-0.2l0.2 0.1-0.1 0.1 0.1-0.1 0.1 0.1z"/><path class="a" d="m59.6 173.9h0.1-0.1l-0.1-0.2v0.2h-0.1 0.1l-0.1 0.2 0.1-0.1 0.1 0.1z"/><path class="a" d="m59 175l0.1-0.1h-0.1l-0.1-0.2v0.2h-0.2l0.1 0.1v0.1h0.1 0.2z"/><path class="a" d="m58.5 173.9h-0.1v-0.1 0.1h-0.1v0.1h0.1 0.1z"/><path class="a" d="m58.7 174.3h0.1-0.1v-0.1l-0.1 0.1v0.1l0.1-0.1v0.1z"/><path class="a" d="m56.1 174.9h0.1-0.1l-0.1-0.1v0.1h-0.1 0.1l-0.1 0.1h0.1 0.1z"/><path class="a" d="m56.9 175.4l0.1-0.1h-0.1l-0.1-0.1v0.1h-0.2l0.1 0.1v0.2l0.1-0.1 0.1 0.1z"/><path class="a" d="m60.1 175.5h0.1-0.1l-0.1-0.1v0.1h-0.1 0.1l-0.1 0.1h0.1 0.1z"/><path class="a" d="m60.9 175.7l0.1-0.1h-0.1v-0.1 0.1h-0.2l0.1 0.1v0.1l0.1-0.1 0.1 0.1z"/><path class="a" d="m61.5 175.5l0.1-0.1h-0.1v-0.1l-0.1 0.1h-0.1l0.1 0.1v0.1l0.1-0.1 0.1 0.1z"/><path class="a" d="m62.1 175.6l0.1-0.1h-0.1l-0.1-0.1v0.1h-0.1l0.1 0.1-0.1 0.1 0.1-0.1 0.1 0.1z"/><path class="a" d="m62.8 174.9l0.2-0.1h-0.2v-0.1l-0.1 0.1h-0.1l0.1 0.1v0.1h0.1 0.1z"/><path class="a" d="m62.6 174.4l0.2-0.1h-0.2v-0.1l-0.1 0.1h-0.2l0.2 0.1-0.1 0.2 0.2-0.1 0.1 0.1z"/><path class="a" d="m62.5 175.3h0.1-0.1v-0.2l-0.1 0.2h-0.1 0.1l-0.1 0.2 0.2-0.1 0.1 0.1z"/><path class="a" d="m61.6 176.5h-0.1v-0.1 0.1h-0.1v0.1h0.1 0.1z"/><path class="a" d="m61.6 176l0.1-0.1h-0.2v-0.1 0.1h-0.2l0.1 0.1v0.1h0.1 0.1z"/><path class="a" d="m60.5 176.1h0.1-0.1l-0.1-0.2v0.2h-0.1 0.1l-0.1 0.2 0.1-0.1 0.2 0.1z"/><path class="a" d="m60.4 172.3h0.1-0.1v-0.1l-0.1 0.1h-0.1 0.1v0.1h0.1z"/><path class="a" d="m58.9 176.7h0.1-0.1v-0.1 0.1h-0.1 0.1v0.1-0.1l0.1 0.1z"/><path class="e" fill="currentColor" d="m91.4 165.2q-2.6 0-4.8-0.5-2.1-0.5-3.7-1.4-1.6-0.9-2.5-2.3-0.9-1.4-0.9-3.1 0-0.2 0-0.4 0-0.2 0-0.3h6.5q0 0.1 0 0.2 0 0.1 0 0.2 0 1.1 0.8 1.7 0.8 0.7 2 1 1.3 0.3 2.7 0.3 1.3 0 2.5-0.2 1.2-0.2 2-0.7 0.9-0.5 0.9-1.4 0-1.2-1-1.7-1-0.5-2.7-0.8-1.7-0.4-3.9-0.8-1.8-0.3-3.4-0.8-1.6-0.5-2.9-1.2-1.3-0.8-2.1-2.1-0.8-1.2-0.8-3 0-1.9 0.9-3.3 0.8-1.4 2.4-2.3 1.6-0.9 3.7-1.3 2.1-0.5 4.6-0.5 2.3 0 4.3 0.5 2 0.4 3.5 1.2 1.4 0.9 2.3 2.1 0.9 1.3 0.9 2.8 0 0.3 0 0.5 0 0.2-0.1 0.4h-6.4v-0.3q0-0.9-0.7-1.4-0.6-0.6-1.6-0.9-1.1-0.2-2.4-0.2-0.7 0-1.5 0-0.9 0.1-1.7 0.4-0.7 0.2-1.2 0.6-0.5 0.4-0.5 1 0 0.8 0.9 1.3 0.8 0.5 2.2 0.7 1.4 0.3 3.1 0.6 1.9 0.4 3.8 0.8 1.8 0.5 3.4 1.2 1.6 0.7 2.5 2 0.9 1.4 0.9 3.6 0 2.2-0.9 3.7-0.9 1.5-2.5 2.4-1.6 0.9-3.8 1.3-2.2 0.4-4.8 0.4z"/><path class="e" fill="currentColor" d="m115.7 165.2q-4.2 0-6.5-2.2-2.3-2.1-2.3-6.7v-15.2h6.5v14.1q0 1.3 0.3 2.2 0.4 0.9 1 1.4 0.6 0.5 1.5 0.8 0.9 0.2 2 0.2 1.6 0 2.9-0.7 1.3-0.7 2.1-2 0.8-1.3 0.8-2.9v-13.1h6.6v23.6h-5.4l-0.5-3.6h-0.3q-1 1.4-2.4 2.3-1.3 0.9-3 1.3-1.6 0.5-3.3 0.5z"/><path class="e" fill="currentColor" d="m135.4 172.8v-31.7h5.3l0.6 3.4h0.3q1.4-2.1 3.6-3 2.1-0.9 4.6-0.9 3.2 0 5.6 1.3 2.4 1.3 3.7 4 1.3 2.7 1.3 7 0 4.1-1.3 6.9-1.3 2.7-3.6 4-2.4 1.4-5.5 1.4-1.6 0-3-0.4-1.5-0.3-2.7-1.1-1.2-0.7-2-1.8h-0.3v10.9zm12.5-12.9q2 0 3.3-0.8 1.3-0.7 1.9-2.2 0.6-1.5 0.6-3.6v-0.9q0-2.1-0.6-3.6-0.6-1.5-1.9-2.2-1.3-0.7-3.4-0.7-1.9 0-3.2 0.8-1.3 0.8-2 2.3-0.7 1.5-0.7 3.5v0.7q0 1.5 0.4 2.8 0.4 1.2 1.1 2.1 0.8 0.9 1.9 1.3 1.1 0.5 2.6 0.5z"/><path class="e" fill="currentColor" d="m176.8 165.2q-4.3 0-7.2-1.3-3-1.3-4.6-4.1-1.5-2.7-1.5-6.9 0-4.2 1.5-6.9 1.6-2.8 4.5-4.1 3-1.3 7.1-1.3 4.1 0 6.9 1.3 2.9 1.3 4.3 3.9 1.5 2.7 1.5 6.7v1.9h-19.1q0.1 2 0.9 3.4 0.7 1.4 2.2 2 1.4 0.6 3.6 0.6 1.1 0 2-0.2 1-0.3 1.8-0.8 0.8-0.5 1.4-1.3 0.5-0.7 0.5-1.7h6.6q0 2-0.9 3.7-0.9 1.6-2.5 2.8-1.6 1.1-3.9 1.7-2.3 0.6-5.1 0.6zm-6.5-14.9h12.1q0-1.3-0.4-2.2-0.5-0.9-1.2-1.6-0.8-0.6-1.8-0.9-1-0.3-2.3-0.3-1.9 0-3.3 0.6-1.4 0.6-2.1 1.7-0.8 1.1-1 2.7z"/><path class="e" fill="currentColor" d="m193.3 164.7v-23.6h5.4l0.5 3.9h0.3q0.5-1.2 1.3-2.3 0.9-1 2.1-1.6 1.2-0.6 2.8-0.6 0.8 0 1.5 0.2 0.6 0.1 1.1 0.3v5.7h-2.6q-1.5 0-2.6 0.5-1.1 0.5-1.8 1.3-0.8 0.9-1.1 2.1-0.3 1.1-0.3 2.6v11.5z"/><path class="e" fill="currentColor" d="m220.9 165.2q-2.4 0-4-0.8-1.5-0.7-2.3-2.2-0.7-1.5-0.7-3.8v-12.4h-3.6v-4.9h3.8l1.3-6.8h5v6.8h5.3v4.9h-5.3v11.5q0 1.3 0.6 2 0.6 0.7 2.1 0.7h2.6v4.3q-0.6 0.2-1.4 0.3-0.9 0.2-1.7 0.3-0.9 0.1-1.7 0.1z"/><path class="e" fill="currentColor" d="m241.4 165.2q-4.3 0-7.3-1.3-2.9-1.3-4.5-4.1-1.6-2.7-1.6-6.9 0-4.2 1.6-6.9 1.6-2.8 4.5-4.1 2.9-1.3 7.1-1.3 4.1 0 6.9 1.3 2.8 1.3 4.3 3.9 1.4 2.7 1.4 6.7v1.9h-19q0.1 2 0.8 3.4 0.8 1.4 2.3 2 1.4 0.6 3.6 0.6 1 0 2-0.2 1-0.3 1.8-0.8 0.8-0.5 1.3-1.3 0.6-0.7 0.6-1.7h6.6q0 2-0.9 3.7-0.9 1.6-2.5 2.8-1.6 1.1-3.9 1.7-2.3 0.6-5.1 0.6zm-6.5-14.9h12.1q0-1.3-0.5-2.2-0.4-0.9-1.1-1.6-0.8-0.6-1.8-0.9-1.1-0.3-2.3-0.3-1.9 0-3.3 0.6-1.4 0.6-2.1 1.7-0.8 1.1-1 2.7z"/><path class="e" fill="currentColor" d="m265.4 165.2q-1.5 0-3.1-0.3-1.6-0.3-2.8-1.1-1.2-0.7-2-2-0.7-1.3-0.7-3.4 0-2.6 1.2-4.2 1.3-1.7 3.6-2.5 2.4-0.8 5.6-1.1 3.3-0.3 7.2-0.3v-1.3q0-1.3-0.5-2-0.5-0.8-1.6-1.3-1.1-0.4-3-0.4-1.6 0-2.7 0.3-1.2 0.4-1.8 0.9-0.6 0.5-0.6 1.2v0.6h-6.4q-0.1-0.3-0.1-0.5 0-0.1 0-0.4 0-2.1 1.4-3.6 1.4-1.6 4-2.4 2.7-0.8 6.4-0.8 3.7 0 6.2 0.8 2.6 0.8 3.9 2.5 1.4 1.7 1.4 4.3v10.4q0 0.8 0.4 1.2 0.4 0.4 1 0.4h1.9v4.2q-0.5 0.3-1.6 0.5-1 0.2-2.5 0.2-1.6 0-2.7-0.4-1.1-0.4-1.7-1.1-0.6-0.8-0.8-1.8h-0.4q-0.9 1-2.3 1.8-1.4 0.8-3.1 1.2-1.7 0.4-3.8 0.4zm2-4.8q1.3 0 2.5-0.4 1.3-0.3 2.2-0.9 1-0.6 1.7-1.5 0.6-1 0.6-2v-1.3q-3.5 0-6 0.3-2.4 0.3-3.7 1.1-1.4 0.8-1.4 2.2 0 0.9 0.6 1.4 0.5 0.6 1.4 0.8 1 0.3 2.1 0.3z"/><path class="e" fill="currentColor" d="m286.8 164.7v-23.6h5.4l0.5 3.6h0.3q1-1.4 2.3-2.3 1.3-1 2.8-1.4 1.5-0.4 3.1-0.4 2.8 0 4.7 1 1.8 0.9 2.8 3.1h0.3q1-1.4 2.3-2.3 1.4-1 2.9-1.4 1.6-0.4 3.3-0.4 2.6 0 4.5 0.9 1.8 0.9 2.9 2.8 1 2 1 5.1v15.3h-6.6v-14.2q0-1.3-0.3-2.2-0.3-0.9-0.8-1.4-0.6-0.5-1.4-0.8-0.8-0.2-1.8-0.2-1.5 0-2.7 0.7-1.2 0.7-2 2-0.7 1.2-0.7 2.9v13.2h-6.5v-14.2q0-1.3-0.3-2.2-0.3-0.9-0.9-1.4-0.6-0.5-1.3-0.8-0.8-0.2-1.9-0.2-1.4 0-2.7 0.7-1.2 0.7-1.9 2-0.7 1.2-0.7 2.9v13.2z"/><path class="e" fill="currentColor" d="m40.4 134.4v19.7h-8.3l2.6 1.1c8.4 3.9 8 17.7-2.7 17.7h-12.8v-19.7c0 0 9.1 0 9.2 0-0.1 0-2-0.5-2.5-0.7-0.7-0.3-1.6-0.6-2.3-1.2-7.3-5-5.6-16.9 4.5-16.9z"/><path class="e" fill="currentColor" d="m69.3 140.4v4.8c0 4.3-4.4 8.4-8.5 9.1-0.7 0.1-1.5 0.1-2.2 0.1v4.5c-2.2 0.1-4.3 0.6-6.2 1.7q-1.1 0.6-2.1 1.4-0.5 0.4-0.9 0.8-0.3 0.3-0.5 0.5-0.1 0.1-0.1 0.2-0.4 0.4-0.8 0.8 0 0.1-0.1 0.2-0.9 1.2-1.5 2.6-0.2 0.4-0.3 0.8-0.6-0.9-1.1-2c-2-5.3-1.3-18.7-1.4-25 0-2.1 0.1-4.3 0-6.5h15v6h0.3z"/><path class="e" fill="currentColor" d="m193.3 182.8v-12.8h10.5q1 0 1.8 0.4 0.9 0.4 1.3 1.1 0.5 0.7 0.5 1.7 0 0.8-0.3 1.4-0.3 0.6-0.8 1-0.5 0.3-1.1 0.5v0.1q0.7 0.2 1.3 0.5 0.6 0.4 0.9 1.1 0.3 0.6 0.3 1.5 0 1.1-0.5 1.9-0.5 0.8-1.4 1.2-0.9 0.4-2 0.4zm3.8-7.7h5.1q0.5 0 0.8-0.2 0.3-0.1 0.4-0.4 0.2-0.3 0.2-0.7 0-0.5-0.4-0.8-0.3-0.4-0.9-0.4h-5.2zm0 5.1h5.5q0.6 0 0.9-0.4 0.4-0.3 0.4-1 0-0.3-0.2-0.6-0.1-0.3-0.4-0.4-0.4-0.2-0.8-0.2h-5.4z"/><path class="e" fill="currentColor" d="m219.5 182.8v-12.8h10.5q1.4 0 2.3 0.6 0.9 0.6 1.4 1.5 0.5 1 0.5 2.1 0 1.2-0.6 2.2-0.6 1-1.7 1.5l2.6 4.9h-4.3l-2.1-4.3h-4.9v4.3zm3.8-7h5.6q0.6 0 1.1-0.4 0.4-0.4 0.4-1.1 0-0.5-0.2-0.8-0.2-0.3-0.5-0.5-0.4-0.2-0.8-0.2h-5.6z"/><path class="e" fill="currentColor" d="m244.7 182.8l6.2-12.8h4.2l6.3 12.8h-4.1l-1-2.1h-6.8l-0.9 2.1zm6.1-4.8h4.3l-1.2-2.6q-0.1-0.2-0.2-0.5-0.1-0.3-0.3-0.7-0.1-0.3-0.2-0.6-0.1-0.4-0.2-0.5h-0.2q-0.1 0.3-0.3 0.8-0.1 0.4-0.3 0.8-0.2 0.4-0.3 0.7z"/><path class="e" fill="currentColor" d="m279.3 183q-1.6 0-2.9-0.2-1.4-0.2-2.4-0.6-1-0.5-1.6-1.3-0.6-0.9-0.6-2.1 0-0.1 0-0.1 0-0.1 0-0.1h3.8q-0.1 0-0.1 0.1 0 0.1 0 0.2 0 0.5 0.4 0.9 0.5 0.3 1.3 0.4 0.7 0.2 1.8 0.2 0.4 0 0.9-0.1 0.4 0 0.9-0.1 0.4 0 0.7-0.2 0.4-0.1 0.6-0.3 0.1-0.2 0.1-0.5 0-0.4-0.4-0.6-0.4-0.2-1.1-0.4-0.7-0.1-1.6-0.2-0.9-0.1-1.9-0.3-1-0.1-1.9-0.4-0.9-0.3-1.6-0.7-0.7-0.5-1.1-1.2-0.5-0.7-0.5-1.7 0-1 0.5-1.7 0.5-0.8 1.5-1.2 0.9-0.5 2.2-0.7 1.2-0.3 2.7-0.3 1.5 0 2.7 0.3 1.3 0.2 2.1 0.7 0.9 0.4 1.4 1.2 0.5 0.7 0.5 1.6v0.3h-3.7v-0.2q0-0.3-0.3-0.6-0.3-0.4-1-0.5-0.6-0.2-1.5-0.2-1.1 0-1.8 0.1-0.7 0.2-1.1 0.4-0.3 0.2-0.3 0.5 0 0.4 0.4 0.6 0.5 0.2 1.2 0.4 0.7 0.1 1.6 0.2 0.9 0.1 1.9 0.3 0.9 0.1 1.8 0.4 0.9 0.2 1.7 0.7 0.7 0.4 1.1 1.1 0.4 0.6 0.4 1.6 0 1.6-0.9 2.5-0.8 0.9-2.4 1.4-1.5 0.4-3.5 0.4z"/><path class="e" fill="currentColor" d="m301.5 170v12.8h-3.7v-12.8z"/><path class="e" fill="currentColor" d="m313.9 182.8v-12.8h3.8v9.7h8.2v3.1z"/></svg>
