<svg width="509" height="87" viewBox="0 0 509 87" fill="none" xmlns="http://www.w3.org/2000/svg">
<path d="M77.68 69.02L77.82 68.92H77.65L77.59 68.75L77.54 68.92H77.36L77.5 69.02L77.45 69.19L77.59 69.09L77.74 69.19L77.68 69.02Z" fill="white"/>
<path d="M52.76 58.15H52.77L52.76 58.16V58.15Z" fill="white"/>
<path d="M87.25 65.92C87.25 67.07 87.13 68.19 86.91 69.28C86.75 70.04 86.55 70.78 86.3 71.49C86.17 71.87 86.02 72.24 85.86 72.6C85.36 73.74 84.74 74.82 84.01 75.81C83.96 75.87 83.92 75.93 83.88 75.99C83.6 76.36 83.31 76.72 83 77.06C82.95 77.12 82.89 77.18 82.83 77.25C81.6 78.58 80.15 79.72 78.54 80.6C76.17 81.89 73.44 82.63 70.55 82.63C67.66 82.63 64.93 81.89 62.56 80.6C61.63 80.09 60.75 79.5 59.95 78.83C59.56 78.52 59.2 78.19 58.84 77.84C58.65 77.65 58.45 77.45 58.27 77.25C58.22 77.19 58.16 77.12 58.1 77.06C57.79 76.72 57.5 76.36 57.22 75.99C57.18 75.93 57.13 75.87 57.09 75.81C56.36 74.82 55.74 73.75 55.24 72.6C55.08 72.23 54.94 71.86 54.8 71.49C54.55 70.78 54.34 70.03 54.18 69.28C53.96 68.19 53.85 67.07 53.85 65.92C53.85 64.89 53.94 63.88 54.12 62.9C54.14 62.79 54.16 62.67 54.18 62.56C54.34 61.8 54.55 61.06 54.8 60.35C54.93 59.97 55.08 59.6 55.24 59.23C55.74 58.09 56.36 57.02 57.09 56.02C57.13 55.96 57.18 55.9 57.22 55.84C57.5 55.47 57.79 55.11 58.1 54.77C58.15 54.71 58.21 54.64 58.27 54.58C58.46 54.38 58.65 54.18 58.84 53.99C59.19 53.64 59.56 53.31 59.95 53C60.76 52.33 61.63 51.74 62.56 51.24C64.79 50.03 67.33 49.3 70.03 49.22C70.21 49.22 70.38 49.21 70.56 49.21C73.46 49.21 76.18 49.95 78.55 51.24C80.16 52.12 81.61 53.25 82.84 54.59C82.9 54.65 82.96 54.71 83.01 54.78C83.32 55.12 83.61 55.48 83.89 55.85C83.93 55.91 83.98 55.97 84.02 56.03C84.75 57.02 85.37 58.1 85.87 59.24C86.03 59.61 86.18 59.98 86.31 60.35C86.56 61.07 86.77 61.81 86.92 62.57C87.14 63.66 87.26 64.78 87.26 65.93L87.25 65.92Z" fill="#129D49"/>
<path d="M86.27 65.92C86.27 66.89 86.18 67.86 86 68.83L70.54 78.7L55.08 68.83C54.89 67.88 54.81 66.91 54.81 65.92C54.81 64.93 54.9 64 55.08 63.03C55.08 63.03 55.08 63 55.08 62.99L70.53 53.12L85.99 62.99C86.18 63.95 86.26 64.93 86.26 65.92H86.27Z" fill="#FBD800"/>
<path d="M79.08 65.92C79.08 66.31 79.05 66.69 79 67.07C79 67.09 79 67.1 79 67.12C78.94 67.58 78.83 68.04 78.7 68.47C78.7 68.48 78.7 68.5 78.69 68.51C77.59 71.96 74.36 74.46 70.55 74.46C65.83 74.46 62.01 70.64 62.01 65.92C62.01 65.19 62.1 64.49 62.27 63.81C62.27 63.8 62.27 63.78 62.28 63.77C62.4 63.32 62.55 62.88 62.74 62.46C62.74 62.45 62.75 62.43 62.76 62.42C64.1 59.45 67.08 57.37 70.56 57.37C75.28 57.37 79.1 61.19 79.1 65.91L79.08 65.92Z" fill="#233A75"/>
<path d="M79 67.07C79 67.07 79 67.1 79 67.12C78.94 67.58 78.83 68.04 78.7 68.47C78.7 68.48 78.7 68.5 78.69 68.51H78.68C75.1 65.29 70.48 63.52 65.67 63.52C64.53 63.52 63.4 63.62 62.29 63.81H62.27C62.27 63.81 62.27 63.79 62.28 63.77C62.4 63.32 62.55 62.88 62.74 62.46C62.74 62.45 62.75 62.43 62.76 62.42C63.72 62.29 64.7 62.22 65.67 62.22C68.16 62.22 70.59 62.66 72.91 63.51C75.14 64.34 77.19 65.53 79.02 67.07H79Z" fill="white"/>
<path d="M73.52 63.11L73.73 62.9599H73.47L73.38 62.7L73.3 62.9599H73.03L73.25 63.11L73.17 63.3699L73.38 63.2099L73.6 63.3699L73.52 63.11Z" fill="white"/>
<path d="M63.77 64.44L63.99 64.29H63.72L63.64 64.03L63.56 64.29H63.29L63.51 64.44L63.43 64.7L63.64 64.54L63.86 64.7L63.77 64.44Z" fill="white"/>
<path d="M64.53 68.04L64.75 67.88H64.48L64.4 67.63L64.32 67.88H64.05L64.26 68.04L64.18 68.29L64.4 68.13L64.61 68.29L64.53 68.04Z" fill="white"/>
<path d="M63.46 68.79L63.64 68.66H63.42L63.35 68.45L63.28 68.66H63.06L63.24 68.79L63.17 69.01L63.35 68.88L63.53 69.01L63.46 68.79Z" fill="white"/>
<path d="M65.3 67.49L65.41 67.41H65.28L65.24 67.29L65.2 67.41H65.06L65.17 67.49L65.13 67.61L65.24 67.54L65.34 67.61L65.3 67.49Z" fill="white"/>
<path d="M66.29 68.88L66.47 68.75H66.24L66.18 68.54L66.11 68.75H65.89L66.06 68.88L66 69.09L66.18 68.96L66.36 69.09L66.29 68.88Z" fill="white"/>
<path d="M67.38 66.35L67.56 66.22H67.34L67.27 66.01L67.2 66.22H66.98L67.16 66.35L67.09 66.56L67.27 66.43L67.45 66.56L67.38 66.35Z" fill="white"/>
<path d="M70.64 67.37L70.82 67.24H70.6L70.53 67.03L70.46 67.24H70.24L70.42 67.37L70.35 67.58L70.53 67.45L70.71 67.58L70.64 67.37Z" fill="white"/>
<path d="M71.63 68.14L71.81 68.01H71.58L71.52 67.8L71.45 68.01H71.23L71.4 68.14L71.34 68.35L71.52 68.22L71.7 68.35L71.63 68.14Z" fill="white"/>
<path d="M70.66 69.84L70.88 69.6901H70.61L70.53 69.4301L70.45 69.6901H70.18L70.39 69.84L70.31 70.1001L70.53 69.9401L70.74 70.1001L70.66 69.84Z" fill="white"/>
<path d="M69.76 68.13L69.9 68.02H69.73L69.67 67.86L69.62 68.02H69.44L69.59 68.13L69.53 68.29L69.67 68.19L69.81 68.29L69.76 68.13Z" fill="white"/>
<path d="M70.16 68.72L70.26 68.64H70.14L70.1 68.52L70.06 68.64H69.93L70.03 68.72L70 68.84L70.1 68.76L70.2 68.84L70.16 68.72Z" fill="white"/>
<path d="M65.93 69.75L66.08 69.64H65.89L65.83 69.46L65.77 69.64H65.59L65.74 69.75L65.68 69.93L65.83 69.82L65.98 69.93L65.93 69.75Z" fill="white"/>
<path d="M67.23 70.54L67.45 70.38H67.18L67.1 70.13L67.02 70.38H66.75L66.97 70.54L66.88 70.79L67.1 70.64L67.31 70.79L67.23 70.54Z" fill="white"/>
<path d="M72.39 70.73L72.54 70.63H72.36L72.3 70.46L72.25 70.63H72.07L72.21 70.73L72.16 70.9L72.3 70.8L72.45 70.9L72.39 70.73Z" fill="white"/>
<path d="M73.8 70.94L73.94 70.84H73.76L73.71 70.67L73.65 70.84H73.48L73.62 70.94L73.57 71.11L73.71 71.01L73.85 71.11L73.8 70.94Z" fill="white"/>
<path d="M74.75 70.65L74.89 70.55H74.72L74.66 70.38L74.61 70.55H74.43L74.57 70.65L74.52 70.82L74.66 70.72L74.81 70.82L74.75 70.65Z" fill="white"/>
<path d="M75.63 70.81L75.78 70.71H75.6L75.55 70.54L75.49 70.71H75.31L75.46 70.81L75.4 70.98L75.55 70.88L75.69 70.98L75.63 70.81Z" fill="white"/>
<path d="M76.87 69.71L77.05 69.58H76.82L76.75 69.36L76.69 69.58H76.46L76.64 69.71L76.58 69.92L76.75 69.79L76.93 69.92L76.87 69.71Z" fill="white"/>
<path d="M76.54 68.96L76.75 68.8H76.49L76.41 68.55L76.32 68.8H76.06L76.27 68.96L76.19 69.21L76.41 69.05L76.62 69.21L76.54 68.96Z" fill="white"/>
<path d="M76.34 70.39L76.52 70.26H76.3L76.23 70.05L76.16 70.26H75.94L76.12 70.39L76.05 70.6L76.23 70.47L76.41 70.6L76.34 70.39Z" fill="white"/>
<path d="M74.77 72.35L74.92 72.24H74.74L74.69 72.08L74.63 72.24H74.45L74.6 72.35L74.54 72.52L74.69 72.41L74.83 72.52L74.77 72.35Z" fill="white"/>
<path d="M74.81 71.5L74.99 71.37H74.77L74.7 71.15L74.63 71.37H74.41L74.59 71.5L74.52 71.71L74.7 71.58L74.88 71.71L74.81 71.5Z" fill="white"/>
<path d="M73.09 71.7L73.27 71.57H73.05L72.98 71.36L72.91 71.57H72.69L72.87 71.7L72.8 71.92L72.98 71.79L73.16 71.92L73.09 71.7Z" fill="white"/>
<path d="M72.93 65.53L73.07 65.43H72.9L72.84 65.26L72.79 65.43H72.61L72.75 65.53L72.7 65.7L72.84 65.6L72.99 65.7L72.93 65.53Z" fill="white"/>
<path d="M70.57 72.63L70.64 72.58H70.55L70.52 72.49L70.49 72.58H70.39L70.47 72.63L70.44 72.73L70.52 72.67L70.6 72.73L70.57 72.63Z" fill="white"/>
<path d="M122.99 53.99C120.24 53.99 117.7 53.72 115.36 53.19C113.02 52.66 110.98 51.9 109.25 50.91C107.51 49.92 106.16 48.69 105.2 47.22C104.24 45.75 103.75 44.05 103.75 42.12V41.54C103.75 41.35 103.77 41.18 103.82 41.03H114.31V41.68C114.36 42.84 114.79 43.78 115.61 44.5C116.43 45.22 117.51 45.74 118.86 46.05C120.21 46.36 121.63 46.52 123.13 46.52C124.53 46.52 125.89 46.42 127.22 46.23C128.55 46.04 129.65 45.65 130.55 45.07C131.44 44.49 131.89 43.72 131.89 42.76C131.89 41.56 131.36 40.66 130.3 40.08C129.24 39.5 127.78 39.04 125.92 38.71C124.06 38.37 121.98 37.99 119.66 37.55C117.73 37.21 115.89 36.78 114.13 36.25C112.37 35.72 110.79 35.03 109.39 34.19C107.99 33.35 106.88 32.26 106.06 30.94C105.24 29.61 104.83 27.96 104.83 25.99C104.83 24.02 105.29 22.13 106.2 20.64C107.12 19.15 108.42 17.92 110.11 16.95C111.8 15.99 113.79 15.28 116.08 14.82C118.37 14.36 120.84 14.13 123.49 14.13C125.95 14.13 128.26 14.36 130.43 14.82C132.6 15.28 134.48 15.95 136.07 16.84C137.66 17.73 138.93 18.85 139.87 20.2C140.81 21.55 141.28 23.07 141.28 24.76V25.56C141.28 25.8 141.26 25.99 141.21 26.14H130.72V25.63C130.72 24.71 130.39 23.97 129.74 23.39C129.09 22.81 128.2 22.37 127.06 22.05C125.93 21.74 124.64 21.58 123.19 21.58C122.47 21.58 121.65 21.63 120.73 21.72C119.81 21.82 118.93 21.99 118.09 22.23C117.25 22.47 116.57 22.81 116.07 23.24C115.56 23.67 115.31 24.23 115.31 24.9C115.31 25.77 115.77 26.45 116.68 26.96C117.6 27.47 118.81 27.86 120.33 28.15C121.85 28.44 123.5 28.75 125.28 29.09C127.31 29.52 129.33 29.97 131.35 30.43C133.38 30.89 135.23 31.5 136.92 32.27C138.61 33.04 139.93 34.15 140.9 35.6C141.86 37.05 142.35 38.98 142.35 41.39C142.35 43.8 141.88 45.67 140.94 47.28C140 48.9 138.66 50.2 136.93 51.19C135.19 52.18 133.14 52.89 130.78 53.32C128.42 53.75 125.81 53.97 122.97 53.97L122.99 53.99Z" fill="#F5E8CA"/>
<path d="M162.36 53.9901C157.83 53.9901 154.32 52.8301 151.84 50.5201C149.36 48.2101 148.12 44.5701 148.12 39.6001V15.0801H158.68V37.8601C158.68 39.2601 158.85 40.4301 159.19 41.3701C159.53 42.3101 160.03 43.0701 160.71 43.6501C161.38 44.2301 162.19 44.6501 163.13 44.9201C164.07 45.1901 165.14 45.3201 166.35 45.3201C168.09 45.3201 169.66 44.9301 171.09 44.1601C172.51 43.3901 173.66 42.3201 174.53 40.9401C175.4 39.5701 175.83 38.0101 175.83 36.2801V15.0801H186.46V53.1201H177.78L176.98 47.3301H176.47C175.31 48.8301 174.01 50.0701 172.56 51.0501C171.11 52.0401 169.51 52.7701 167.75 53.2601C165.99 53.7401 164.19 53.9801 162.36 53.9801V53.9901Z" fill="#F5E8CA"/>
<path d="M194.23 66.36V15.08H202.84L203.78 20.58H204.29C205.78 18.27 207.68 16.63 209.97 15.66C212.26 14.7 214.75 14.21 217.45 14.21C220.97 14.21 224.02 14.91 226.6 16.31C229.18 17.71 231.17 19.88 232.57 22.82C233.97 25.76 234.67 29.52 234.67 34.1C234.67 38.68 233.96 42.3 232.54 45.24C231.12 48.18 229.15 50.37 226.65 51.82C224.14 53.27 221.2 53.99 217.83 53.99C216.14 53.99 214.52 53.8 212.95 53.41C211.38 53.03 209.95 52.43 208.65 51.64C207.35 50.84 206.24 49.87 205.32 48.71H204.89V66.36H194.26H194.23ZM214.4 45.38C216.57 45.38 218.35 44.98 219.75 44.19C221.15 43.39 222.18 42.19 222.86 40.57C223.53 38.96 223.87 37.04 223.87 34.82V33.37C223.87 31.06 223.53 29.1 222.86 27.51C222.18 25.92 221.15 24.73 219.75 23.93C218.35 23.13 216.54 22.74 214.33 22.74C212.26 22.74 210.51 23.17 209.09 24.04C207.67 24.91 206.58 26.15 205.84 27.76C205.09 29.38 204.72 31.29 204.72 33.51V34.52C204.72 36.16 204.94 37.67 205.37 39.04C205.8 40.41 206.42 41.57 207.21 42.51C208.01 43.45 208.99 44.16 210.17 44.64C211.35 45.12 212.76 45.36 214.4 45.36V45.38Z" fill="#F5E8CA"/>
<path d="M261.11 53.99C256.53 53.99 252.64 53.28 249.43 51.86C246.22 50.44 243.78 48.26 242.09 45.32C240.4 42.38 239.56 38.64 239.56 34.11C239.56 29.58 240.4 25.84 242.09 22.9C243.78 19.96 246.2 17.78 249.36 16.36C252.52 14.94 256.34 14.23 260.82 14.23C265.3 14.23 268.93 14.93 271.99 16.33C275.05 17.73 277.37 19.86 278.93 22.73C280.5 25.6 281.28 29.2 281.28 33.54V36.5H250.47C250.57 38.72 251.02 40.56 251.84 42.03C252.66 43.5 253.85 44.57 255.42 45.25C256.99 45.93 258.93 46.26 261.24 46.26C262.4 46.26 263.51 46.13 264.57 45.86C265.63 45.6 266.59 45.19 267.46 44.63C268.33 44.08 269.05 43.39 269.63 42.57C270.21 41.75 270.52 40.81 270.57 39.75H281.2C281.2 41.97 280.7 43.97 279.72 45.75C278.73 47.53 277.37 49.03 275.63 50.23C273.89 51.44 271.8 52.36 269.34 53.01C266.88 53.66 264.13 53.99 261.1 53.99H261.11ZM250.63 29.91H270.16C270.16 28.56 269.93 27.38 269.47 26.37C269.01 25.36 268.37 24.51 267.55 23.84C266.73 23.17 265.77 22.67 264.66 22.36C263.55 22.05 262.32 21.89 260.97 21.89C258.9 21.89 257.12 22.19 255.65 22.79C254.18 23.39 253.03 24.3 252.21 25.5C251.39 26.71 250.86 28.18 250.62 29.91H250.63Z" fill="#F5E8CA"/>
<path d="M287.81 53.12V15.08H296.49L297.36 21.3H297.87C298.35 20 299.05 18.79 299.97 17.68C300.89 16.57 302.01 15.7 303.33 15.08C304.66 14.45 306.16 14.14 307.85 14.14C308.72 14.14 309.51 14.21 310.24 14.36C310.96 14.5 311.59 14.67 312.12 14.87V24.13H307.93C306.29 24.13 304.88 24.38 303.7 24.89C302.52 25.4 301.53 26.12 300.73 27.06C299.93 28 299.36 29.1 298.99 30.35C298.63 31.6 298.45 33.03 298.45 34.62V53.13H287.82L287.81 53.12Z" fill="#F5E8CA"/>
<path d="M332.5 53.99C329.85 53.99 327.68 53.58 325.99 52.76C324.3 51.94 323.06 50.72 322.27 49.11C321.47 47.5 321.08 45.48 321.08 43.07V23.04H315.22V15.08H321.51L323.53 4.02002H331.7V15.08H340.23V23.04H331.7V41.55C331.7 43 332 44.09 332.6 44.84C333.2 45.59 334.35 45.96 336.04 45.96H340.23V52.83C339.6 53.02 338.83 53.2 337.92 53.37C337 53.54 336.06 53.68 335.1 53.8C334.13 53.92 333.27 53.98 332.5 53.98V53.99Z" fill="#F5E8CA"/>
<path d="M365.54 53.99C360.96 53.99 357.07 53.28 353.86 51.86C350.65 50.44 348.21 48.26 346.52 45.32C344.83 42.38 343.99 38.64 343.99 34.11C343.99 29.58 344.83 25.84 346.52 22.9C348.21 19.96 350.63 17.78 353.79 16.36C356.95 14.94 360.77 14.23 365.25 14.23C369.73 14.23 373.36 14.93 376.42 16.33C379.48 17.73 381.8 19.86 383.36 22.73C384.93 25.6 385.71 29.2 385.71 33.54V36.5H354.9C355 38.72 355.45 40.56 356.27 42.03C357.09 43.5 358.28 44.57 359.85 45.25C361.42 45.93 363.36 46.26 365.67 46.26C366.83 46.26 367.94 46.13 369 45.86C370.06 45.6 371.02 45.19 371.89 44.63C372.76 44.08 373.48 43.39 374.06 42.57C374.64 41.75 374.95 40.81 375 39.75H385.63C385.63 41.97 385.13 43.97 384.15 45.75C383.16 47.53 381.8 49.03 380.06 50.23C378.32 51.44 376.23 52.36 373.77 53.01C371.31 53.66 368.56 53.99 365.53 53.99H365.54ZM355.05 29.91H374.58C374.58 28.56 374.35 27.38 373.89 26.37C373.43 25.36 372.79 24.51 371.97 23.84C371.15 23.17 370.19 22.67 369.08 22.36C367.97 22.05 366.74 21.89 365.39 21.89C363.32 21.89 361.54 22.19 360.07 22.79C358.6 23.39 357.45 24.3 356.63 25.5C355.81 26.71 355.28 28.18 355.04 29.91H355.05Z" fill="#F5E8CA"/>
<path d="M404.45 53.99C402.76 53.99 401.07 53.82 399.39 53.48C397.7 53.14 396.2 52.59 394.87 51.82C393.54 51.05 392.47 49.95 391.65 48.53C390.83 47.11 390.42 45.29 390.42 43.07C390.42 40.23 391.09 37.92 392.44 36.16C393.79 34.4 395.74 33.08 398.3 32.18C400.86 31.29 403.88 30.7 407.38 30.41C410.87 30.12 414.72 29.98 418.91 29.98V27.74C418.91 26.44 418.63 25.37 418.08 24.52C417.53 23.68 416.66 23.01 415.48 22.53C414.3 22.05 412.72 21.81 410.74 21.81C409 21.81 407.52 21.99 406.29 22.35C405.06 22.71 404.12 23.18 403.47 23.76C402.82 24.34 402.49 25.01 402.49 25.78V26.65H392.08C392.03 26.36 392 26.12 391.97 25.93C391.95 25.74 391.93 25.5 391.93 25.21C391.93 22.99 392.68 21.05 394.17 19.39C395.66 17.73 397.85 16.45 400.71 15.56C403.58 14.67 407.01 14.22 411.02 14.22C415.03 14.22 418.38 14.65 421.11 15.52C423.83 16.39 425.92 17.74 427.37 19.57C428.82 21.4 429.54 23.74 429.54 26.58V43.29C429.54 44.16 429.77 44.82 430.23 45.28C430.69 45.74 431.25 45.97 431.93 45.97H434.97V52.77C434.44 53.01 433.6 53.26 432.44 53.53C431.28 53.79 429.93 53.93 428.39 53.93C426.61 53.93 425.14 53.7 423.98 53.24C422.82 52.78 421.92 52.16 421.27 51.36C420.62 50.56 420.15 49.64 419.86 48.58H419.28C418.27 49.64 417.03 50.59 415.56 51.44C414.09 52.28 412.43 52.92 410.57 53.36C408.71 53.79 406.68 54.01 404.46 54.01L404.45 53.99ZM407.64 46.18C409.04 46.18 410.4 46 411.73 45.64C413.06 45.28 414.25 44.77 415.31 44.12C416.37 43.47 417.24 42.65 417.91 41.66C418.58 40.67 418.92 39.6 418.92 38.44V36.34C415.16 36.34 411.95 36.52 409.3 36.88C406.65 37.24 404.61 37.84 403.19 38.69C401.77 39.53 401.06 40.7 401.06 42.2C401.06 43.16 401.35 43.94 401.93 44.51C402.51 45.09 403.3 45.51 404.32 45.78C405.33 46.05 406.44 46.18 407.65 46.18H407.64Z" fill="#F5E8CA"/>
<path d="M439 53.12V15.08H447.68L448.55 20.79H449.06C450.07 19.3 451.29 18.05 452.71 17.07C454.13 16.08 455.66 15.36 457.3 14.9C458.94 14.44 460.63 14.21 462.36 14.21C465.3 14.21 467.78 14.73 469.81 15.76C471.83 16.8 473.38 18.47 474.44 20.79H474.95C476.01 19.3 477.25 18.05 478.67 17.07C480.09 16.08 481.66 15.36 483.37 14.9C485.08 14.44 486.83 14.21 488.61 14.21C491.45 14.21 493.88 14.69 495.88 15.66C497.88 16.62 499.43 18.17 500.54 20.29C501.65 22.41 502.2 25.11 502.2 28.39V53.12H491.5V30.2C491.5 28.85 491.34 27.69 491.03 26.73C490.72 25.77 490.27 24.99 489.69 24.42C489.11 23.85 488.38 23.43 487.48 23.19C486.59 22.95 485.64 22.83 484.62 22.83C483.03 22.83 481.57 23.2 480.24 23.95C478.91 24.7 477.85 25.76 477.06 27.13C476.26 28.5 475.87 30.06 475.87 31.79V53.12H465.31V30.2C465.31 28.85 465.14 27.69 464.8 26.73C464.46 25.77 463.99 24.99 463.39 24.42C462.79 23.84 462.06 23.43 461.22 23.19C460.38 22.95 459.4 22.83 458.29 22.83C456.7 22.83 455.24 23.2 453.91 23.95C452.58 24.7 451.53 25.76 450.76 27.13C449.99 28.5 449.6 30.06 449.6 31.79V53.12H438.97H439Z" fill="#F5E8CA"/>
<path d="M40.59 4.18994V36.0399H27.09L31.37 37.8099C44.96 44.0999 44.37 66.4999 26.91 66.4999H6.32V34.6499H21.2C21 34.6499 17.87 33.8699 17.13 33.5399C16 33.0399 14.47 32.4299 13.35 31.5999C1.56 23.4399 4.4 4.18994 20.68 4.18994H40.58H40.59Z" fill="#F5E8CA"/>
<path d="M87.32 13.8901V21.6701C87.32 28.6601 80.25 35.3201 73.61 36.3501C72.38 36.5401 71.15 36.5701 70.01 36.5701V43.8401C66.5 43.9201 63.04 44.8401 59.97 46.5201C58.75 47.1901 57.59 47.9701 56.52 48.8501C56.02 49.2601 55.53 49.7001 55.06 50.1601C54.8 50.4101 54.55 50.6801 54.3 50.9401C54.22 51.0301 54.14 51.1101 54.07 51.1901C53.67 51.6501 53.27 52.1201 52.9 52.6001C52.84 52.6801 52.78 52.7601 52.72 52.8401C51.75 54.1601 50.93 55.5801 50.28 57.0701C50.09 57.5201 49.9 57.9801 49.74 58.4301C49.08 57.4301 48.51 56.3101 48.02 55.0601C44.7 46.5701 45.96 24.9101 45.75 14.7501C45.67 11.2301 45.83 7.70005 45.76 4.18005H69.99V13.8801H70.51H87.3L87.32 13.8901Z" fill="#F5E8CA"/>
<path d="M287.81 82.43V61.84H304.72C305.84 61.84 306.84 62.05 307.74 62.48C308.64 62.91 309.35 63.5 309.88 64.26C310.41 65.02 310.67 65.91 310.67 66.92C310.67 67.82 310.51 68.59 310.19 69.22C309.87 69.86 309.44 70.38 308.89 70.78C308.34 71.18 307.74 71.48 307.08 71.68V71.8C307.86 71.96 308.56 72.24 309.17 72.65C309.78 73.06 310.28 73.61 310.64 74.31C311 75.01 311.18 75.86 311.18 76.85C311.18 78.03 310.9 79.03 310.33 79.86C309.76 80.69 309 81.32 308.04 81.76C307.08 82.2 306.01 82.42 304.81 82.42H287.81V82.43ZM293.88 69.98H302.26C302.72 69.98 303.11 69.89 303.43 69.73C303.75 69.56 304 69.33 304.18 69.03C304.36 68.73 304.45 68.37 304.45 67.95C304.45 67.37 304.25 66.91 303.85 66.56C303.45 66.21 302.95 66.04 302.35 66.04H293.88V69.99V69.98ZM293.88 78.09H302.77C303.41 78.09 303.93 77.92 304.33 77.57C304.73 77.22 304.93 76.69 304.93 75.97C304.93 75.59 304.84 75.25 304.68 74.95C304.51 74.65 304.26 74.42 303.92 74.25C303.58 74.08 303.17 74 302.69 74H293.89V78.1L293.88 78.09Z" fill="#F5E8CA"/>
<path d="M330.11 82.43V61.84H347.23C348.73 61.84 349.96 62.15 350.94 62.77C351.92 63.39 352.66 64.2 353.15 65.21C353.64 66.22 353.9 67.32 353.9 68.52C353.9 69.82 353.59 71 352.97 72.07C352.35 73.14 351.42 73.98 350.19 74.6L354.38 82.44H347.5L344.09 75.59H336.19V82.44H330.12L330.11 82.43ZM336.19 71.09H345.23C345.97 71.09 346.56 70.87 346.99 70.43C347.43 69.99 347.65 69.4 347.65 68.66C347.65 68.18 347.55 67.77 347.35 67.42C347.15 67.07 346.87 66.81 346.51 66.63C346.15 66.45 345.72 66.36 345.22 66.36H336.18V71.09H336.19Z" fill="#F5E8CA"/>
<path d="M370.87 82.43L380.98 61.84H387.77L397.88 82.43H391.27L389.71 79.14H378.7L377.14 82.43H370.86H370.87ZM380.74 74.68H387.68L385.82 70.49C385.74 70.31 385.63 70.05 385.49 69.7C385.35 69.35 385.2 68.98 385.04 68.59C384.88 68.2 384.74 67.84 384.62 67.51C384.5 67.18 384.4 66.94 384.32 66.78H384.11C383.97 67.14 383.8 67.56 383.6 68.04C383.4 68.52 383.22 68.98 383.05 69.42C382.88 69.86 382.73 70.22 382.59 70.5L380.74 74.69V74.68Z" fill="#F5E8CA"/>
<path d="M426.82 82.79C425.14 82.79 423.58 82.69 422.12 82.49C420.66 82.29 419.39 81.94 418.29 81.44C417.19 80.94 416.33 80.24 415.72 79.35C415.1 78.45 414.79 77.31 414.79 75.94V75.79C414.79 75.73 414.79 75.67 414.82 75.61H420.8C420.78 75.69 420.76 75.77 420.75 75.85C420.75 75.93 420.74 76.02 420.74 76.12C420.74 76.74 420.97 77.22 421.44 77.57C421.91 77.92 422.56 78.16 423.4 78.3C424.24 78.44 425.23 78.51 426.36 78.51C426.82 78.51 427.29 78.5 427.78 78.47C428.27 78.44 428.74 78.39 429.2 78.32C429.66 78.25 430.07 78.15 430.44 78.01C430.81 77.87 431.1 77.7 431.31 77.49C431.52 77.28 431.62 77.02 431.62 76.7C431.62 76.28 431.4 75.95 430.95 75.7C430.5 75.45 429.88 75.25 429.09 75.1C428.3 74.95 427.42 74.82 426.46 74.7C425.49 74.58 424.49 74.44 423.45 74.27C422.41 74.1 421.4 73.87 420.43 73.58C419.45 73.29 418.58 72.91 417.8 72.43C417.02 71.95 416.4 71.33 415.94 70.57C415.48 69.81 415.25 68.89 415.25 67.82C415.25 66.75 415.52 65.78 416.07 64.99C416.62 64.2 417.39 63.55 418.39 63.03C419.39 62.51 420.56 62.13 421.92 61.88C423.28 61.63 424.75 61.51 426.35 61.51C427.95 61.51 429.47 61.64 430.79 61.9C432.12 62.16 433.25 62.54 434.2 63.05C435.15 63.56 435.88 64.2 436.38 64.96C436.89 65.73 437.14 66.63 437.14 67.67V68.09H431.25V67.85C431.25 67.43 431.07 67.06 430.71 66.73C430.35 66.4 429.83 66.14 429.14 65.95C428.45 65.76 427.62 65.67 426.64 65.67C425.46 65.67 424.5 65.74 423.74 65.89C422.98 66.04 422.42 66.24 422.06 66.49C421.7 66.74 421.52 67.02 421.52 67.34C421.52 67.74 421.75 68.05 422.21 68.28C422.67 68.51 423.29 68.69 424.06 68.83C424.84 68.97 425.71 69.1 426.68 69.22C427.65 69.34 428.65 69.48 429.7 69.64C430.75 69.8 431.75 70.02 432.72 70.3C433.69 70.58 434.56 70.95 435.34 71.42C436.12 71.89 436.74 72.49 437.19 73.22C437.65 73.95 437.88 74.84 437.88 75.9C437.88 77.56 437.4 78.89 436.44 79.91C435.48 80.93 434.17 81.67 432.51 82.12C430.84 82.58 428.93 82.81 426.78 82.81L426.82 82.79Z" fill="#F5E8CA"/>
<path d="M456.74 82.43V61.84H462.81V82.43H456.74Z" fill="#F5E8CA"/>
<path d="M482.87 82.43V61.84H488.94V77.52H502.17V82.43H482.87Z" fill="#F5E8CA"/>
</svg>
